<svg viewBox="0 0 32 32" fill="none" xmlns="http://www.w3.org/2000/svg">
    <circle r="13" transform="matrix(0 -1 -1 0 16 16)" fill="none" stroke="#232A3A" stroke-width="4"/>
    <path d="M19.7153 12.2116C19.8913 12.044 20.1257 11.9513 20.3688 11.9532C20.6119 11.955 20.8448 12.0512 21.0183 12.2215C21.1918 12.3918 21.2924 12.6228 21.2989 12.8658C21.3053 13.1089 21.217 13.3449 21.0528 13.5241L16.0653 19.7616C15.9795 19.854 15.876 19.9281 15.7609 19.9796C15.6459 20.031 15.5216 20.0588 15.3956 20.0611C15.2695 20.0634 15.1443 20.0403 15.0275 19.9932C14.9106 19.946 14.8044 19.8758 14.7153 19.7866L11.4078 16.4791C11.3157 16.3933 11.2418 16.2898 11.1905 16.1748C11.1393 16.0598 11.1117 15.9357 11.1095 15.8098C11.1073 15.6839 11.1305 15.5589 11.1776 15.4421C11.2248 15.3254 11.2949 15.2194 11.384 15.1303C11.473 15.0413 11.579 14.9711 11.6958 14.924C11.8125 14.8768 11.9375 14.8537 12.0634 14.8559C12.1893 14.8581 12.3134 14.8857 12.4284 14.9369C12.5434 14.9881 12.6469 15.062 12.7328 15.1541L15.3503 17.7704L19.6915 12.2391C19.6993 12.2295 19.7064 12.2203 19.7153 12.2116Z" stroke="none" fill="#232A3A"/>
</svg>