<svg viewBox="0 0 32 32" fill="none" xmlns="http://www.w3.org/2000/svg">
    <path d="M24.8003 13.6735C24.462 13.0342 23.7519 12.6672 22.8504 12.6672H17.9825V3.89054C17.9825 2.60498 17.4677 2.17855 17.0341 2.04866C16.606 1.91956 15.9435 1.98372 15.2365 3.04315L12.1444 7.64159C11.6397 8.39665 10.9061 9.47252 10.2631 10.4138L6.47886 15.9019C5.79138 16.912 5.99372 17.6397 6.17496 17.9832C6.36089 18.3361 6.86557 18.9284 8.14679 18.9284H13.2943V28.1221C13.2943 28.5087 13.2943 29.6855 14.1763 29.9531C14.281 29.9851 14.3826 30 14.4802 30C15.1997 30 15.7193 29.2222 15.9122 28.9327L18.8606 24.321L19.059 24.0245C19.7793 22.9455 20.8184 21.39 21.4816 20.415L24.5206 15.905C25.0409 15.1366 25.1433 14.3245 24.8003 13.6735ZM23.2277 15.0255L20.1879 19.5356C19.5246 20.5105 18.4825 22.0707 17.7614 23.1528L14.8568 27.6793V18.1444C14.8568 17.7117 14.5084 17.3619 14.0756 17.3619H8.14835C7.75227 17.3619 7.57883 17.2719 7.56243 17.2649C7.5554 17.2289 7.57962 17.0615 7.76711 16.7876L11.5537 11.2956C12.1998 10.3496 12.9373 9.2683 13.4428 8.51167L16.4208 4.08381V13.4497C16.4208 13.8824 16.77 14.2321 17.202 14.2321H22.8511C23.1792 14.2321 23.3761 14.3221 23.4207 14.4066C23.4667 14.4966 23.4285 14.729 23.2277 15.0255Z" stroke="none" fill="#232A3A"/>
    <path d="M16.8801 3.5L17.3747 13L23.8039 14L16.3856 26.5L14.4074 28V27.5L13.9128 18H7.97821L6.9891 16.5L15.891 3.5H16.8801Z" stroke="none"  fill="#232A3A"/>
    <path d="M24.8003 13.6735C24.462 13.0342 23.7519 12.6672 22.8504 12.6672H17.9825V3.89054C17.9825 2.60498 17.4677 2.17855 17.0341 2.04866C16.606 1.91956 15.9435 1.98372 15.2365 3.04315L12.1444 7.64159C11.6397 8.39665 10.9061 9.47252 10.2631 10.4138L6.47886 15.9019C5.79138 16.912 5.99372 17.6397 6.17496 17.9832C6.36089 18.3361 6.86557 18.9284 8.14679 18.9284H13.2943V28.1221C13.2943 28.5087 13.2943 29.6855 14.1763 29.9531C14.281 29.9851 14.3826 30 14.4802 30C15.1997 30 15.7193 29.2222 15.9122 28.9327L18.8606 24.321L19.059 24.0245C19.7793 22.9455 20.8184 21.39 21.4816 20.415L24.5206 15.905C25.0409 15.1366 25.1433 14.3245 24.8003 13.6735ZM23.2277 15.0255L20.1879 19.5356C19.5246 20.5105 18.4825 22.0707 17.7614 23.1528L14.8568 27.6793V18.1444C14.8568 17.7117 14.5084 17.3619 14.0756 17.3619H8.14835C7.75227 17.3619 7.57883 17.2719 7.56243 17.2649C7.5554 17.2289 7.57962 17.0615 7.76711 16.7876L11.5537 11.2956C12.1998 10.3496 12.9373 9.2683 13.4428 8.51167L16.4208 4.08381V13.4497C16.4208 13.8824 16.77 14.2321 17.202 14.2321H22.8511C23.1792 14.2321 23.3761 14.3221 23.4207 14.4066C23.4667 14.4966 23.4285 14.729 23.2277 15.0255Z" fill="none" stroke="#232A3A"/>
    <path d="M16.8801 3.5L17.3747 13L23.8039 14L16.3856 26.5L14.4074 28V27.5L13.9128 18H7.97821L6.9891 16.5L15.891 3.5H16.8801Z" fill="none" stroke="#232A3A"/>
</svg>
