<svg viewBox="0 0 32 32" fill="none" xmlns="http://www.w3.org/2000/svg">
    <path d="M26.0289 18.8057C25.2633 18.8057 24.5589 19.1011 24.0383 19.5736L20.6697 17.6834C20.884 17.1517 21.0065 16.5905 21.0065 15.9703C21.0065 15.4091 20.884 14.8479 20.7003 14.3458L24.0689 12.4851C24.5896 12.9576 25.2939 13.253 26.0595 13.253C27.7203 13.253 29.0607 11.9228 28.9973 10.3073C28.9393 8.83792 27.6985 7.64067 26.1749 7.58424C24.4993 7.52253 23.1196 8.81524 23.1196 10.4176C23.1196 10.6243 23.1502 10.8311 23.2115 11.0378L19.8734 12.8986C19.1384 12.042 18.0972 11.4218 16.8722 11.215V7.52305C18.153 7.14331 19.0816 5.94764 18.9405 4.55682C18.8016 3.18815 17.6422 2.10008 16.2198 2.00672C14.5038 1.89438 13.0748 3.2045 13.0748 4.8353C13.0748 6.10534 13.9629 7.16863 15.1573 7.52305V11.2446C13.9629 11.4513 12.9217 12.0716 12.1867 12.9281L8.81806 11.0673C8.84869 10.8606 8.87931 10.6538 8.87931 10.4471C8.87931 8.8817 7.56247 7.61166 5.93938 7.61166C4.31684 7.61166 3 8.88223 3 10.4181C3 11.9539 4.31684 13.2535 5.93993 13.2535C6.73616 13.2535 7.44052 12.9582 7.96113 12.4561L11.2992 14.3168C11.1154 14.8189 10.9929 15.3801 10.9929 15.9413C10.9929 16.532 11.1154 17.0636 11.3298 17.5953L7.93051 19.4856C7.34372 18.9861 6.56226 18.6744 5.67415 18.7619C4.26653 18.9001 3.14437 20.004 3.03883 21.3648C2.90977 23.0283 4.27255 24.418 5.97055 24.418C7.66856 24.418 8.91048 23.148 8.91048 21.5826C8.91048 21.3463 8.87986 21.11 8.81861 20.9033L12.2179 19.013C12.9529 19.8695 13.9635 20.4602 15.1272 20.667V24.4771C13.9351 24.831 13.0787 25.8911 13.0754 27.158C13.0716 28.7012 14.3775 29.9803 15.977 29.9998C17.6176 30.0198 18.9552 28.7424 18.9552 27.1643C18.9552 25.8648 18.0671 24.8015 16.8422 24.447V20.725C18.0365 20.5478 19.0471 19.9571 19.8127 19.1005L23.212 20.9908C23.1508 21.1976 23.1201 21.4043 23.1201 21.6111C23.1201 23.1765 24.437 24.4465 26.0601 24.4465C27.6832 24.4465 29 23.1765 29 21.6111C29 20.0457 27.652 18.8052 26.0294 18.8052L26.0289 18.8057Z" stroke="none" fill="#232A3A"/>
</svg>
