<svg viewBox="0 0 32 32" fill="none" xmlns="http://www.w3.org/2000/svg">
    <path d="M30 16C30 12.2869 28.525 8.72605 25.8994 6.10057C23.274 3.47499 19.713 2 16 2C12.287 2 8.72605 3.47499 6.10057 6.10057C3.47499 8.72595 2 12.287 2 16C2 19.713 3.47499 23.2739 6.10057 25.8994C8.72595 28.525 12.287 30 16 30C19.709 29.9869 23.2624 28.5076 25.8849 25.885C28.5074 23.2623 29.9869 19.709 30 16ZM26.2668 22.6605L20.1706 12.4997H27.734C28.245 14.198 28.3784 15.9872 28.125 17.7427C27.8715 19.4979 27.2373 21.1763 26.2668 22.6605ZM18.1294 19.4997H13.8708L11.7704 15.9998L13.8708 12.4998H18.1296L20.2298 15.9998L18.1294 19.4997ZM27.0513 10.7498H14.9209L18.9037 4.11183C20.6685 4.5464 22.3144 5.36708 23.7235 6.51492C25.1325 7.66296 26.2691 9.1094 27.0513 10.7498ZM16.0004 3.74984C16.3541 3.74984 16.7019 3.77347 17.048 3.80296L10.7506 14.2989L6.88106 7.84943C8.02581 6.56134 9.43005 5.5299 11.0019 4.8233C12.5736 4.11686 14.2772 3.75084 16.0004 3.74984ZM5.73347 9.3393L11.8297 19.5H4.26628C3.75534 17.8018 3.62194 16.0125 3.87527 14.2571C4.12878 12.5018 4.76298 10.8234 5.73347 9.3393ZM4.94908 21.2497H17.08L13.0974 27.8877C11.3326 27.4531 9.68629 26.6322 8.27735 25.4844C6.86817 24.3365 5.73127 22.8901 4.94908 21.2497ZM16 28.2497C15.6465 28.2497 15.2987 28.2262 14.9526 28.1965L21.25 17.7007L25.1195 24.1502C23.9747 25.4383 22.5705 26.4697 20.9986 27.1763C19.4269 27.8827 17.7232 28.2487 16 28.2497Z" stroke="none" fill="#232A3A"/>
    <path d="M18.3839 16.0435C18.3839 17.3361 17.3361 18.3839 16.0435 18.3839C14.751 18.3839 13.7031 17.3361 13.7031 16.0435C13.7031 14.751 14.751 13.7031 16.0435 13.7031C17.3361 13.7031 18.3839 14.751 18.3839 16.0435Z" stroke="none" fill="#232A3A"/>
</svg>
