<svg viewBox="0 0 32 32" fill="none" xmlns="http://www.w3.org/2000/svg">
    <path d="M29.2091 25.3808L23.8605 20.0322C23.4347 19.6123 22.7465 19.6064 22.3148 20.0263L21.2824 18.9879C24.1055 15.1499 24.0939 9.74842 20.9266 5.89867C17.1819 1.34309 10.4507 0.683913 5.89526 4.42882C1.33968 8.17941 0.686233 14.9109 4.43114 19.4659C8.04762 23.8639 14.4404 24.6106 18.9786 21.2858L20.017 22.3242C19.6028 22.7558 19.6087 23.4382 20.0286 23.8639L25.3772 29.2126C26.433 30.2625 28.1537 30.2625 29.2095 29.2126C30.2595 28.1569 30.2591 26.4366 29.2091 25.3808ZM17.975 19.1281C14.4344 22.0445 9.17296 21.5604 6.23305 17.9848C3.31658 14.4382 3.80077 9.17701 7.37636 6.23137C10.8586 3.36151 16.1435 3.7582 19.124 7.38036C22.0346 10.9151 21.5681 16.1767 17.975 19.1281Z" stroke="none" fill="#232A3A"/>
    <path d="M17.5043 15.9201V17.1566L7.85079 17.1568V15.9203C7.85079 14.2578 9.19815 12.9104 10.8606 12.9104H14.4946C16.1569 12.9104 17.5043 14.2578 17.5043 15.9201Z" stroke="none" fill="#232A3A"/>
    <path d="M10.1374 9.41632C10.1374 8.01646 11.2748 6.87315 12.6746 6.87315C14.0804 6.87315 15.2178 8.01646 15.2178 9.41632C15.2178 10.8221 14.0804 11.9595 12.6746 11.9595C11.2748 11.9595 10.1374 10.8221 10.1374 9.41632Z" stroke="none" fill="#232A3A"/>
</svg>

