<svg viewBox="0 0 32 32" fill="none" xmlns="http://www.w3.org/2000/svg">
    <path d="M21.9688 11.8359V18.5603L24.7551 19.4157V11.836L21.9688 11.8359Z" stroke="none" fill="#232A3A"/>
    <path d="M19.8411 17.8819V11.8359H17.0547V17.0856C17.3105 17.1151 17.538 17.1741 17.7939 17.2626L19.8411 17.8819Z" stroke="none" fill="#232A3A"/>
    <path d="M14.9348 11.8359H12.1484V17.8819L14.1956 17.2625C14.4231 17.174 14.679 17.1446 14.9348 17.0856V11.8359Z" stroke="none" fill="#232A3A"/>
    <path d="M7.22656 11.836V19.4156L10.013 18.5308V11.8359L7.22656 11.836Z" stroke="none" fill="#232A3A"/>
    <path d="M26.7306 7.41195L16.2103 2.04428C16.0681 1.98524 15.9259 1.98524 15.7839 2.04428L5.26367 7.41195C5.0931 7.50041 5.00781 7.67734 5.00781 7.85426V9.94834C5.00781 10.2137 5.20694 10.4497 5.49115 10.4497H26.5032C26.7591 10.4497 26.9866 10.2431 26.9866 9.94834V7.85426C26.9866 7.64791 26.8729 7.50041 26.7307 7.41195H26.7306ZM15.9829 8.0314C15.1298 8.0314 14.4476 7.32352 14.4476 6.4389C14.4476 5.55407 15.13 4.8464 15.9829 4.8464C16.8359 4.8464 17.5182 5.55428 17.5182 6.4389C17.5182 7.32352 16.8359 8.0314 15.9829 8.0314Z" stroke="none" fill="#232A3A"/>
    <path d="M26.5097 21.4146L17.3827 18.6128C16.9277 18.4653 16.4444 18.4062 15.961 18.4062C15.4777 18.4062 15.0227 18.4653 14.5677 18.6128L5.46915 21.4146C4.84362 21.6211 4.84362 22.5353 5.46915 22.7417L8.93799 23.8034V27.0771C8.93799 27.7554 9.3644 28.3158 9.96158 28.5223L12.2363 29.2006C14.7384 29.9673 17.3827 29.9673 19.8848 29.2006L22.1595 28.5223C22.7567 28.3157 23.1831 27.7555 23.1831 27.0771L23.1829 23.774L25.2585 23.1251V26.4283H25.1448C24.9742 26.4283 24.8604 26.5758 24.8604 26.7233V28.2569C24.8604 28.4339 25.0026 28.5519 25.1448 28.5519H25.2017L24.7468 29.5546C24.6615 29.7612 24.7751 29.997 25.0026 29.997H26.4243C26.6234 29.997 26.7654 29.761 26.6801 29.5546L26.1968 28.5814H26.2537C26.4243 28.5814 26.5381 28.4339 26.5381 28.2864V26.7527C26.5381 26.5758 26.3959 26.4577 26.2537 26.4577H26.1401V22.8598L26.5097 22.7419C27.1635 22.5648 27.1635 21.6211 26.5095 21.4146L26.5097 21.4146Z" stroke="none" fill="#232A3A"/>
</svg>

