<svg viewBox="0 0 32 32" fill="none" xmlns="http://www.w3.org/2000/svg">
    <path d="M6 6C6 4.93914 6.42143 3.92172 7.17157 3.17157C7.92172 2.42143 8.93914 2 10 2C11.0609 2 12.0783 2.42143 12.8284 3.17157C13.5786 3.92172 14 4.93914 14 6C14 7.06087 13.5786 8.07829 12.8284 8.82843C12.0783 9.57858 11.0609 10 10 10C8.93914 10 7.92172 9.57858 7.17157 8.82843C6.42143 8.07829 6 7.06087 6 6Z" stroke="none" fill="#232A3A"/>
    <path d="M19.5575 9.16509L19.6415 9.22909C20.4901 9.85811 21.553 10.1259 22.5983 9.97412C23.6437 9.8223 24.5865 9.26318 25.2211 8.41876C25.8557 7.57435 26.1305 6.5132 25.9856 5.46689C25.8407 4.42059 25.2878 3.47407 24.4476 2.83391C23.6074 2.19375 22.5481 1.91192 21.5009 2.04992C20.4536 2.18793 19.5035 2.73456 18.8578 3.57052C18.2121 4.40649 17.9233 5.46392 18.0544 6.51204C18.1855 7.56017 18.7258 8.5139 19.5575 9.16509Z" stroke="none" fill="#232A3A"/>
    <path d="M12.5333 11.9993C12.7845 11.5236 13.129 11.1035 13.5463 10.764C13.9637 10.4246 14.4452 10.1728 14.962 10.0238C15.4789 9.87475 16.0205 9.83149 16.5545 9.8966C17.0885 9.96171 17.6038 10.1339 18.0697 10.4027C18.5356 10.6716 18.9425 11.0317 19.266 11.4615C19.5896 11.8913 19.8231 12.3819 19.9526 12.904C20.0822 13.4261 20.105 13.9689 20.0199 14.5001C19.9348 15.0312 19.7434 15.5398 19.4573 15.9953C18.9067 16.8715 18.0379 17.5003 17.0335 17.7495C16.0291 17.9987 14.9672 17.8489 14.0709 17.3316C13.1746 16.8144 12.5137 15.9698 12.2269 14.9755C11.9402 13.9811 12.05 12.9144 12.5333 11.9993Z" stroke="none" fill="#232A3A"/>
    <path d="M5 12H10.34C10.12 12.626 10 13.3 10 14C10 15.536 10.578 16.94 11.528 18H11C9.96888 17.9999 8.9629 18.3184 8.11977 18.912C7.27664 19.5056 6.63756 20.3452 6.29 21.316C5.61867 21.0463 4.9901 20.6805 4.424 20.23C2.92 19.02 2 17.232 2 15C2 14.2044 2.31607 13.4413 2.87868 12.8787C3.44129 12.3161 4.20435 12 5 12Z" stroke="none" fill="#232A3A"/>
    <path d="M20.9968 18C23.1668 18 25.0148 19.382 25.7048 21.316C26.3848 21.038 27.0148 20.676 27.5728 20.23C29.0768 19.02 29.9968 17.232 29.9968 15C29.9968 14.2044 29.6807 13.4413 29.1181 12.8787C28.5555 12.3161 27.7924 12 26.9968 12H21.6568C21.8768 12.626 21.9968 13.3 21.9968 14C21.9986 15.4762 21.4543 16.901 20.4688 18H20.9968Z" stroke="none" fill="#232A3A"/>
    <path d="M23.774 21.856C23.92 22.208 24 22.596 24 23C24 25.232 23.082 27.02 21.576 28.23C20.094 29.42 18.106 30 16 30C13.894 30 11.906 29.42 10.424 28.23C8.92001 27.02 8.00001 25.232 8.00001 23C7.99896 22.6058 8.07583 22.2152 8.22622 21.8507C8.37661 21.4863 8.59755 21.1551 8.87634 20.8763C9.15512 20.5976 9.48626 20.3766 9.85071 20.2262C10.2152 20.0758 10.6058 19.999 11 20H21C21.5942 19.9999 22.1751 20.1762 22.669 20.5066C23.1628 20.8371 23.5474 21.3067 23.774 21.856Z" stroke="none" fill="#232A3A"/>
</svg>
