<svg viewBox="0 0 32 32" fill="none" xmlns="http://www.w3.org/2000/svg">
    <path d="M16 6C8.26944 6 2 16.5 2 16.5C2 16.5 8.26924 27 16 27C23.7319 27 30 16.5 30 16.5C30 16.5 23.7321 6 16 6ZM16 23.5C12.1347 23.5 9 20.366 9 16.5C9 12.6342 12.1348 9.5 16 9.5C19.8658 9.5 23 12.634 23 16.5C23 20.3658 19.8658 23.5 16 23.5Z" stroke="none" fill="#232A3A"/>
    <path d="M19.4997 16.4999C19.4997 18.4329 17.9329 19.9997 15.9999 19.9997C14.0668 19.9997 12.5 18.4329 12.5 16.4999C12.5 14.5668 14.0668 13 15.9999 13C17.9329 13 19.4997 14.5668 19.4997 16.4999Z" stroke="none" fill="#232A3A"/>
</svg>
