<svg viewBox="0 0 32 32" fill="none" xmlns="http://www.w3.org/2000/svg">
    <path fill-rule="evenodd" clip-rule="evenodd" d="M26.4383 10.4916C28.043 12.5292 29 15.1064 29 17.8634C29 24.5759 23.3827 29.9999 16.5 29.9999C9.58642 30.03 4 24.5759 4 17.8634C4 11.4805 9.06173 6.26631 15.4815 5.75688V5.03762H13.7531C13.1667 5.03762 12.7038 4.58821 12.7038 4.01881C12.7038 3.44939 13.1667 3 13.7531 3H19.3087C19.8952 3 20.358 3.44941 20.358 4.01881C20.358 4.58823 19.8952 5.03762 19.3087 5.03762H17.5804V5.75688C19.4939 5.90675 21.315 6.47613 22.889 7.40509L23.3211 6.89569C23.815 6.32627 24.6792 6.26628 25.2346 6.71592L26.8086 8.00438C27.3951 8.48389 27.4569 9.32296 26.963 9.89233L26.4383 10.4916ZM16.5 7.73467C10.7284 7.73467 6.0679 12.2596 6.0679 17.8634C6.0679 23.4672 10.7283 27.9921 16.5 27.9921C22.2716 27.9921 26.9321 23.4672 26.9321 17.8634C26.9319 12.2596 22.2715 7.73467 16.5 7.73467ZM16.5 26.6436C11.5001 26.6436 7.45679 22.718 7.45679 17.8634C7.45679 13.0087 11.4999 9.08317 16.5 9.08317C21.4999 9.08296 25.5432 13.0085 25.5432 17.8629C25.5432 22.7176 21.5001 26.6431 16.5 26.6431V26.6436ZM21.1604 13.3384C20.8827 13.0688 20.4506 13.0688 20.1727 13.3384L17.6417 15.7958C17.3022 15.616 16.9009 15.5261 16.4998 15.5261C15.1417 15.5261 14.0616 16.5751 14.0616 17.8934C14.0616 19.212 15.142 20.2607 16.4998 20.2607C17.8579 20.2607 18.9379 19.2117 18.9379 17.8934C18.9379 17.4739 18.8454 17.1143 18.6292 16.7546L21.1602 14.2973C21.4381 14.0276 21.4381 13.6081 21.1604 13.3384L21.1604 13.3384ZM16.5 18.8823C15.9135 18.8823 15.4507 18.4328 15.4507 17.8634C15.4507 17.294 15.9135 16.8446 16.5 16.8446C17.0865 16.8446 17.5493 17.294 17.5493 17.8634C17.5493 18.4327 17.0865 18.8823 16.5 18.8823Z" stroke="none" fill="#232A3A"/>
</svg>
