<svg viewBox="0 0 32 32" fill="none" xmlns="http://www.w3.org/2000/svg">
    <path d="M24.131 17.3686C23.245 18.57 22.5632 19.5995 22.0522 20.5951L20.4844 23.65H18.8486V12.529C18.8486 12.4948 18.8146 12.4261 18.8146 12.3918L17.1106 8.27299C17.0084 8.0326 16.7697 7.86117 16.4973 7.86117C16.2246 7.86117 15.9862 8.03284 15.884 8.27299L14.18 12.3918V12.4261C14.18 12.4603 14.146 12.4948 14.146 12.529V23.65H12.5103L10.9425 20.5951C10.4314 19.5998 9.74955 18.57 8.8636 17.3686C5.93275 13.3869 6.51204 7.68914 10.2267 4.39402C13.8051 1.20199 19.2237 1.20199 22.8362 4.39402C26.4826 7.68927 27.0619 13.387 24.131 17.3686ZM12.7143 27.0823H20.2119V25.0227L12.7143 25.023V27.0823ZM16.4632 30C17.5878 30 18.5081 29.0732 18.5081 27.9404H14.4184C14.4184 29.0731 15.3385 30 16.4632 30ZM15.7817 11.9798H17.1447L16.4632 10.3323L15.7817 11.9798ZM15.4408 23.65H17.4857V13.3528H15.4408V23.65Z" stroke="none" fill="#232A3A"/>
</svg>
