<svg viewBox="0 0 32 32" fill="none" xmlns="http://www.w3.org/2000/svg">
    <path d="M30 16.7891L16 20.0625L2 16.7891H30Z" stroke="none" fill="#232A3A"/>
    <path d="M4.61343 18.875L15.6608 21.4578L15.9919 21.5357L16.323 21.4582L27.3694 18.8754C27.9161 19.1244 28.2969 19.6677 28.2969 20.3015C28.2969 21.1703 27.5846 21.8743 26.7062 21.8743H5.27678C4.39778 21.8743 3.68567 21.1701 3.68567 20.3015C3.68607 19.6673 4.06763 19.124 4.61313 18.875L4.61343 18.875Z" stroke="none" fill="#232A3A"/>
    <path d="M3.38201 23.2891H28.6254C29.0045 23.2891 29.3125 23.5937 29.3125 23.9687C29.3125 25.6381 27.9386 26.9961 26.2512 26.9961H5.75651C4.0691 26.9961 2.69654 25.6383 2.69654 23.9687C2.69634 23.5936 3.00373 23.2891 3.38211 23.2891H3.38201Z" stroke="none" fill="#232A3A"/>
    <path d="M3.186 13.2105C5.91384 8.69572 10.7035 6 15.9986 6C21.2936 6 26.0834 8.69572 28.8117 13.2105C29.0777 13.6505 29.0838 14.1983 28.8281 14.6445C28.5719 15.0903 28.0934 15.3661 27.575 15.3661H4.42296C3.90454 15.3661 3.42587 15.0905 3.17011 14.6445C2.91396 14.1987 2.92009 13.6509 3.18633 13.2105H3.186Z" stroke="none" fill="#232A3A"/>
</svg>
