<svg viewBox="0 0 32 32" fill="none" xmlns="http://www.w3.org/2000/svg">
    <path d="M18.2699 12.5503L25.085 17.6837C25.5122 16.7272 25.7511 15.7398 25.8134 14.6811C25.8284 14.4216 25.831 14.1588 25.8207 13.8983L20.6165 8.57031H20.5705C18.1164 8.57031 16.4563 10.695 16.426 10.7172L13.6106 13.7403C13.1739 14.2066 13.0655 14.8627 13.6165 15.3219C14.0338 15.6699 14.6359 15.6384 15.0165 15.2477L17.6345 12.5967C17.862 12.3917 18.1831 12.4846 18.2699 12.5504L18.2699 12.5503Z" stroke="none" fill="#232A3A"/>
    <path d="M21.8514 4.26562C21.4034 4.26602 20.9816 4.44522 20.6637 4.77065C19.9975 5.4525 19.9975 6.56158 20.6637 7.24302L27.1268 13.8588C27.7645 14.5109 28.8677 14.5105 29.5028 13.8592C30.169 13.1773 30.169 12.0683 29.5028 11.3868L23.0397 4.77105C22.7208 4.44521 22.2989 4.26563 21.8514 4.26563C21.4034 4.26602 22.299 4.26563 21.8514 4.26563V4.26562Z" stroke="none" fill="#232A3A"/>
    <path d="M10.1515 4C9.70354 4 9.28174 4.17919 8.96338 4.50503L2.49924 11.1213C1.83352 11.8023 1.83352 12.9118 2.49964 13.5933C3.14544 14.2547 4.22974 14.2543 4.87569 13.5929L11.3393 6.97659C12.0047 6.29556 12.0047 5.18668 11.3389 4.50524C11.0258 4.18972 10.6018 4.00001 10.1516 4.00001L10.1515 4Z" fill="#232A3A"/>
    <path d="M7.89505 18.1324L6.44542 19.6165C6.18493 19.8832 6.18493 20.3166 6.44502 20.5829L6.67768 20.8212C6.92103 21.0707 7.33979 21.0707 7.58273 20.8212L9.03237 19.3371C9.29286 19.0704 9.29286 18.6366 9.03237 18.3699L8.8003 18.1321C8.55756 17.8839 8.1398 17.8821 7.89504 18.1323L7.89505 18.1324Z" fill="#232A3A"/>
    <path d="M10.1758 19.8128C10.0061 19.8128 9.84517 19.8812 9.7238 20.006L9.72339 20.0064L8.27314 21.4906C8.01305 21.7569 8.01305 22.1907 8.27354 22.4574L8.50561 22.6951C8.74896 22.9435 9.1673 22.9439 9.41107 22.6947L10.8603 21.2106C11.1208 20.9439 11.1208 20.5101 10.8603 20.2434L10.6286 20.0064C10.5069 19.8812 10.3462 19.8128 10.1758 19.8128L10.1758 19.8128ZM9.3774 19.6719H9.38184H9.3774Z" stroke="none" fill="#232A3A"/>
    <path d="M12.0665 21.6175C11.8967 21.6175 11.7358 21.6859 11.6145 21.8107L11.6141 21.8111L10.1638 23.2953C9.90373 23.5616 9.90373 23.9954 10.1638 24.2617L10.3965 24.5C10.6398 24.7484 11.0582 24.7488 11.3019 24.4996L12.7522 23.0154C13.0123 22.7491 13.0123 22.3154 12.7522 22.0491L12.5195 21.8113C12.3976 21.6859 12.2369 21.6175 12.0665 21.6175H12.0665ZM11.2681 21.4766H11.2725H11.2681Z" stroke="none" fill="#232A3A"/>
    <path d="M13.9102 23.5009C13.7404 23.5009 13.5795 23.5693 13.4582 23.6941L13.4578 23.6945L12.0075 25.1787C11.7474 25.445 11.7474 25.8788 12.0079 26.1455L12.24 26.3832C12.4833 26.6316 12.9017 26.632 13.1454 26.3828L14.5951 24.8987C14.8556 24.632 14.8556 24.1982 14.5951 23.9315L14.3634 23.6949C14.2412 23.5693 14.0803 23.5009 13.9102 23.5009L13.9102 23.5009ZM13.1112 23.3594H13.1156H13.1112Z" stroke="none" fill="#232A3A"/>
    <path d="M14.7779 26.0714L15.9932 27.212C16.2154 27.4224 16.3203 27.6573 16.6029 27.8139C16.9529 28.009 17.3834 28.0544 17.7876 27.9405C18.1431 27.8397 18.4243 27.6294 18.5805 27.348C18.7346 27.071 18.7711 26.7027 18.6804 26.3368C18.6378 26.1661 18.6924 25.9861 18.8235 25.8674C18.9535 25.7488 19.1382 25.7105 19.3068 25.7678C19.7114 25.9073 20.1146 25.8954 20.3346 25.7353C20.6522 25.5045 20.8441 24.7876 20.6016 24.0325C20.5407 23.8435 20.603 23.6368 20.7588 23.5119C20.9151 23.3871 21.1318 23.3715 21.3034 23.4707C21.9312 23.8316 22.5748 23.7739 22.8611 23.5348C23.1831 23.2663 23.3553 22.5218 23.0702 21.7875C23.0069 21.624 23.0381 21.439 23.1525 21.3053C23.2658 21.1711 23.442 21.1114 23.6168 21.1443C23.8805 21.1985 24.1448 21.1715 24.3801 21.0687C25.0124 20.7931 25.2509 20.0216 25.1599 19.4019C25.1261 19.1735 25.0416 18.9552 24.9089 18.7516L18.0262 13.5668L15.7066 15.9156C14.9701 16.6673 13.8047 16.7286 12.9955 16.0543C12.5352 15.6707 12.2693 15.1111 12.266 14.5189C12.2634 13.9611 12.5009 13.4325 12.9194 13.065L15.4941 10.3011C14.4878 9.14184 13.0414 8.48438 11.467 8.48438L11.3717 8.48517C11.3138 8.48596 11.2565 8.48874 11.2009 8.49231L6.36609 13.4416C6.19633 14.873 6.43243 16.3277 7.03811 17.6146L7.19436 17.4547C7.80485 16.8298 8.87445 16.8298 9.48453 17.4543L9.71719 17.6926C10.0293 18.0117 10.1841 18.4318 10.1823 18.8515C10.614 18.8529 11.0186 19.0249 11.3227 19.3365L11.5543 19.5734C11.8483 19.8748 12.0037 20.2656 12.0187 20.6611C12.4794 20.6495 12.8985 20.8202 13.2159 21.1446L13.4479 21.382C13.7582 21.6993 13.913 22.1162 13.9135 22.5333C14.3421 22.5365 14.7435 22.7085 15.0458 23.0183L15.2774 23.2549C15.8988 23.8914 15.8988 24.9253 15.2778 25.5605L14.7779 26.0714Z" stroke="none" fill="#232A3A"/>
</svg>
