<svg viewBox="0 0 32 32" fill="none" xmlns="http://www.w3.org/2000/svg">
    <path d="M28 15.0135C28 14.6548 27.8008 14.3237 27.4772 14.1445C27.1538 13.9651 26.755 13.9651 26.4316 14.1445C26.1079 14.3237 25.9085 14.6548 25.9085 15.0135C25.8979 18.1136 24.2306 20.992 21.4922 22.6374C18.754 24.2831 15.3275 24.4657 12.4159 23.1213C9.50446 21.7772 7.51524 19.0939 7.14644 16.0138H10.2286C10.2286 18.1637 11.424 20.1502 13.3644 21.2252C15.3046 22.3001 17.6953 22.3001 19.6355 21.2252C21.5759 20.1502 22.7713 18.1637 22.7713 16.0138H15.4577C15.0853 16.0138 14.7411 15.8232 14.5548 15.5137C14.3685 15.2043 14.3685 14.8229 14.5548 14.5134C14.7412 14.2038 15.0853 14.0133 15.4577 14.0133H22.7713V8.01752C22.7713 5.86764 21.5759 3.88118 19.6355 2.80629C17.6953 1.73124 15.3046 1.73124 13.3644 2.80629C11.424 3.88112 10.2286 5.86764 10.2286 8.01752V14.0133L6.04566 14.0135C5.76878 14.0135 5.50342 14.1186 5.30737 14.3063C5.11134 14.4937 5.00068 14.7481 5 15.0138C5.0122 17.7589 6.09056 20.4012 8.02439 22.4242C9.958 24.4473 12.6082 25.7063 15.4576 25.9551V27.9992H12.3202C11.9478 27.9992 11.6036 28.1899 11.4173 28.4994C11.2313 28.809 11.2313 29.1902 11.4173 29.4999C11.6037 29.8093 11.9478 30 12.3202 30H20.6796C21.052 30 21.3962 29.8093 21.5825 29.4999C21.7686 29.1902 21.7686 28.809 21.5825 28.4994C21.3962 28.1899 21.052 27.9992 20.6796 27.9992H17.5423V25.9551C20.3937 25.7061 23.0457 24.4453 24.9795 22.4196C26.9134 20.3937 27.9904 17.7484 27.9994 15.0009L28 15.0135ZM12.6439 11.9411C12.6439 12.2841 12.3539 12.5624 11.9964 12.5624C11.6387 12.5624 11.3487 12.2841 11.3487 11.9411V7.90244C11.3487 6.6664 11.8605 5.48122 12.7713 4.60732C13.6821 3.73337 14.9172 3.24252 16.2052 3.24252H16.6327C16.9902 3.24252 17.2801 3.52055 17.2801 3.86379C17.2801 4.20682 16.9902 4.48505 16.6327 4.48505H16.1988C15.2541 4.48505 14.3483 4.84521 13.6805 5.48599C13.0127 6.12679 12.6373 6.99597 12.6373 7.90244L12.6439 11.9411Z" stroke="none" fill="#232A3A"/>
    <path d="M15.4726 5.92586C15.3648 5.9109 15.2555 5.93842 15.1695 6.00235C15.0834 6.06606 15.0281 6.16076 15.0159 6.26456C14.6954 6.2832 14.3876 6.39306 14.1322 6.58008C13.877 6.76709 13.6853 7.02258 13.5819 7.31446C13.2386 8.33032 14.0254 9.4208 15.0033 9.77489H15.0031C15.4579 9.96689 15.9825 9.92832 16.4016 9.67239C16.8549 9.36164 16.926 8.82423 16.9877 8.32407C17.1042 7.2555 16.7772 6.03139 15.4726 5.92587L15.4726 5.92586ZM16.0229 8.13166C15.9744 8.63181 15.8804 9.15385 15.2329 8.86172C14.8154 8.67232 14.3555 8.16589 14.4656 7.68742C14.4974 7.50452 14.6189 7.34742 14.7919 7.26485C14.9649 7.1825 15.1688 7.18467 15.3398 7.27092C15.5299 7.39856 15.7917 7.35717 15.929 7.17774C16.0403 7.48372 16.0726 7.81093 16.0229 8.13163L16.0229 8.13166Z" stroke="none" fill="#232A3A"/>
    <path d="M19.6451 6.7774C19.5374 6.76245 19.4281 6.79019 19.342 6.8539C19.256 6.91782 19.2007 7.01231 19.1887 7.11611C18.8655 7.13149 18.5545 7.23963 18.2961 7.4262C18.0376 7.61278 17.8431 7.86935 17.7381 8.16297C17.3948 9.17883 18.1816 10.2693 19.1595 10.6234C19.6144 10.8154 20.1388 10.7768 20.5581 10.5209C21.0114 10.2102 21.0825 9.67274 21.1442 9.17258C21.2768 8.10707 20.9497 6.88312 19.6451 6.77738L19.6451 6.7774ZM20.1955 8.98321C20.1437 9.48639 20.0564 10.0084 19.4087 9.71326C18.9911 9.52386 18.5313 9.01744 18.6413 8.53896H18.6415C18.6734 8.35607 18.7946 8.19896 18.9676 8.11661C19.1408 8.03405 19.3446 8.03644 19.5155 8.12268C19.7059 8.25032 19.9674 8.20893 20.1049 8.0295C20.2151 8.3357 20.2463 8.66292 20.1955 8.98317L20.1955 8.98321Z" stroke="none" fill="#232A3A"/>
    <path d="M16.2779 17.1298C16.17 17.1132 16.0595 17.14 15.973 17.2042C15.8865 17.2683 15.8317 17.3641 15.8213 17.4685C15.4983 17.4839 15.1873 17.5921 14.9287 17.7786C14.6704 17.9652 14.4759 18.2218 14.3709 18.5154C14.0276 19.5313 14.8145 20.6185 15.7923 20.9758H15.7921C16.2474 21.1685 16.7727 21.1288 17.1909 20.8703C17.6442 20.5596 17.7153 20.0221 17.777 19.5253C17.9096 18.4565 17.5826 17.251 16.2779 17.1298L16.2779 17.1298ZM16.8283 19.3356C16.7797 19.8358 16.6858 20.3578 16.0383 20.0657C15.6207 19.8763 15.1609 19.3699 15.2709 18.8914C15.3032 18.7087 15.4245 18.5516 15.5973 18.4688C15.7698 18.3858 15.9735 18.3871 16.1451 18.4719C16.3346 18.6002 16.5959 18.5603 16.7343 18.3819C16.8445 18.6881 16.8757 19.0154 16.8251 19.3356L16.8283 19.3356Z" stroke="none" fill="#232A3A"/>
</svg>
