<svg viewBox="0 0 32 32" fill="none" xmlns="http://www.w3.org/2000/svg">
    <path d="M25.6617 17.941V14.1386C25.6617 9.85426 22.779 6.23291 18.8177 5.04641C18.8253 4.95973 18.8302 4.87197 18.8302 4.78398C18.8302 3.24924 17.5604 2 16 2C14.4397 2 13.1702 3.24901 13.1702 4.78398C13.1702 4.87197 13.1746 4.95973 13.1829 5.04641C9.22138 6.23268 6.33887 9.85431 6.33887 14.1386V17.9415C5.48552 19.4789 5 21.2417 5 23.1169V30H27V23.1169C27.0004 21.2417 26.5149 19.4784 25.6617 17.941ZM14.2516 4.78416C14.2516 3.83563 15.036 3.06466 16.0001 3.06466C16.9644 3.06466 17.7486 3.83563 17.7486 4.78416V4.79076C17.1813 4.68913 16.5974 4.63502 16.0001 4.63502C15.4034 4.63502 14.8184 4.68935 14.2516 4.79076V4.78416ZM10.5317 9.01593H21.4679V10.0216H10.5317V9.01593ZM22.922 25.3302C22.922 25.8001 22.5347 26.1813 22.0568 26.1813L9.94303 26.1815C9.46514 26.1815 9.07784 25.8003 9.07784 25.3304V21.0085C9.07784 20.5379 9.46516 20.1574 9.94303 20.1574H22.0568C22.5347 20.1574 22.922 20.538 22.922 21.0085V25.3302Z" stroke="none" fill="#232A3A"/>
    <path d="M11.1688 21.8579H20.8312V22.7459H11.1688V21.8579Z" stroke="none" fill="#232A3A"/>
</svg>