<svg viewBox="0 0 32 32" fill="none" xmlns="http://www.w3.org/2000/svg">
    <path d="M29.2741 15.248H29.2083L26.3236 9.26713C26.7167 8.78631 26.8351 8.13738 26.6375 7.54849C26.4397 6.9598 25.9535 6.51385 25.35 6.36769C24.7463 6.22151 24.11 6.39541 23.6646 6.82856L22.6553 6.03943H22.6555C21.2584 4.95655 19.4404 4.57687 17.7267 5.01021L17.4609 5.07881H17.4607C17.3321 4.65962 17.0293 4.31603 16.6299 4.13551C16.2303 3.95483 15.7724 3.95483 15.3727 4.13551C14.9731 4.31599 14.6703 4.65962 14.5417 5.07881L14.2959 5.01021C12.5848 4.57965 10.7708 4.95916 9.37564 6.03943L8.36633 6.82856H8.36653C7.92121 6.3954 7.28482 6.22149 6.68117 6.36769C6.07773 6.51387 5.5915 6.9598 5.39367 7.54849C5.19604 8.13738 5.3145 8.78631 5.70756 9.26713L2.8143 15.248H2.74849C2.53989 15.2474 2.34026 15.3341 2.19849 15.4873C2.05671 15.6406 1.98551 15.8462 2.00246 16.0542C2.14345 17.7673 3.13976 19.2935 4.65123 20.1119C6.16286 20.9303 7.98544 20.9303 9.49706 20.1119C11.0087 19.2935 12.005 17.7672 12.146 16.0542C12.1636 15.8462 12.0932 15.6402 11.952 15.4865C11.8106 15.3327 11.6114 15.2452 11.4026 15.2452H11.3368L8.4778 9.32711L9.8672 8.46937L9.8674 8.46957C10.8619 7.86929 12.085 7.78536 13.1523 8.24362C13.5538 8.3912 13.9769 8.47136 14.4045 8.48094V10.0819C13.767 10.5757 13.3938 11.3369 13.3938 12.1432C13.3938 12.9496 13.7669 13.7106 14.4045 14.2046V23.462L8.93268 25.5947C8.68379 25.6718 8.46602 25.8268 8.31167 26.0366C8.15732 26.2466 8.07436 26.5006 8.07495 26.7611V26.8355C8.07495 27.1599 8.20398 27.4712 8.43332 27.7007C8.66286 27.9301 8.97417 28.0591 9.29861 28.0591H22.7214C23.0459 28.0591 23.3572 27.9301 23.5865 27.7007C23.816 27.4712 23.9449 27.1599 23.9449 26.8355V26.7611C23.9455 26.5008 23.8623 26.2474 23.708 26.038C23.5536 25.8284 23.336 25.674 23.0874 25.5976L17.615 23.462V14.2076C18.2526 13.7139 18.6259 12.9527 18.6259 12.1464C18.6259 11.3399 18.2526 10.5789 17.615 10.0849V8.48115C18.044 8.46899 18.4677 8.38682 18.8702 8.23805C19.9331 7.78895 21.1474 7.87949 22.1322 8.48115L23.5216 9.33889L20.6627 15.2569H20.5968L20.597 15.2567C20.3882 15.2569 20.189 15.3445 20.0478 15.4982C19.9064 15.652 19.836 15.8578 19.8538 16.0658C19.9948 17.7791 20.9911 19.305 22.5025 20.1235C24.0142 20.9419 25.8368 20.9419 27.3484 20.1235C28.86 19.305 29.8563 17.779 29.9974 16.0658C30.0149 15.8578 29.9445 15.652 29.8033 15.4982C29.6619 15.3445 29.4627 15.2569 29.2539 15.2567L29.2741 15.248ZM8.97549 15.248H5.19018L7.07715 11.3341L8.97549 15.248ZM23.0702 15.248L24.9571 11.3341L26.8441 15.248H23.0702Z" stroke="none" fill="#232A3A"/>
</svg>
