<svg viewBox="0 0 32 32" fill="none" xmlns="http://www.w3.org/2000/svg">
    <path fill-rule="evenodd" clip-rule="evenodd" d="M11.5578 3.27942H20.4433V9.92633H16.9793L17.9153 21.7477C17.9709 22.4511 17.3947 23.0319 16.7589 23.0319H15.2433C14.6071 23.0319 14.0309 22.4508 14.087 21.7477L15.0226 9.92633H11.5581V3.27942H11.5578ZM9.58664 26.6184H10.5622V25.2518C10.5622 24.6193 11.0929 24.1027 11.7426 24.1027H20.255C20.9052 24.1027 21.4355 24.6192 21.4355 25.2518V26.6184H22.4131C23.2863 26.6184 24 27.3131 24 28.1631V30H8V28.1631C8 27.3131 8.71321 26.6184 9.58693 26.6184H9.58664ZM22.4929 2H22.4923C21.7149 2 21.0782 2.61931 21.0782 3.37642V9.8291C21.0782 10.5858 21.7146 11.2055 22.4923 11.2055H22.4929C23.2708 11.2055 23.9069 10.586 23.9069 9.8291V3.37642C23.9069 2.61926 23.2707 2 22.4929 2ZM9.50541 2H9.50656C10.2839 2 10.9206 2.61931 10.9206 3.37642V9.8291C10.9206 10.5858 10.2842 11.2055 9.50656 11.2055H9.50541C8.72804 11.2055 8.09182 10.586 8.09182 9.8291V3.37642C8.09182 2.61926 8.72804 2 9.50541 2Z" stroke="none" fill="#232A3A"/>
</svg>
