<svg viewBox="0 0 32 32" fill="none" xmlns="http://www.w3.org/2000/svg">
    <path d="M22.6977 9.32071C22.5995 9.22227 22.4828 9.14417 22.3543 9.09089C22.2259 9.0376 22.0882 9.01017 21.9491 9.01017C21.81 9.01017 21.6723 9.0376 21.5438 9.09089C21.4154 9.14417 21.2987 9.22227 21.2005 9.32071L16.0078 14.5027L10.8152 9.31009C10.7169 9.21178 10.6001 9.1338 10.4717 9.08059C10.3432 9.02738 10.2056 9 10.0665 9C9.9275 9 9.78983 9.02738 9.66138 9.08059C9.53293 9.1338 9.41622 9.21178 9.31791 9.31009C9.21959 9.40841 9.14161 9.52512 9.0884 9.65357C9.0352 9.78202 9.00781 9.91969 9.00781 10.0587C9.00781 10.1978 9.0352 10.3354 9.0884 10.4639C9.14161 10.5923 9.21959 10.709 9.31791 10.8074L14.5105 16L9.31791 21.1926C9.21959 21.291 9.14161 21.4077 9.0884 21.5361C9.0352 21.6646 9.00781 21.8022 9.00781 21.9413C9.00781 22.0803 9.0352 22.218 9.0884 22.3464C9.14161 22.4749 9.21959 22.5916 9.31791 22.6899C9.41622 22.7882 9.53293 22.8662 9.66138 22.9194C9.78983 22.9726 9.9275 23 10.0665 23C10.2056 23 10.3432 22.9726 10.4717 22.9194C10.6001 22.8662 10.7169 22.7882 10.8152 22.6899L16.0078 17.4973L21.2005 22.6899C21.2988 22.7882 21.4155 22.8662 21.5439 22.9194C21.6724 22.9726 21.8101 23 21.9491 23C22.0881 23 22.2258 22.9726 22.3542 22.9194C22.4827 22.8662 22.5994 22.7882 22.6977 22.6899C22.796 22.5916 22.874 22.4749 22.9272 22.3464C22.9804 22.218 23.0078 22.0803 23.0078 21.9413C23.0078 21.8022 22.9804 21.6646 22.9272 21.5361C22.874 21.4077 22.796 21.291 22.6977 21.1926L17.5051 16L22.6977 10.8074C23.1012 10.4038 23.1012 9.72423 22.6977 9.32071Z" fill="#232A3A" stroke="none"/>
    <rect x="2.75781" y="2.75" width="26.5" height="26.5" rx="1.75" fill="none" stroke="#232A3A" stroke-width="1.5"/>
</svg>