<svg width="32" height="32" viewBox="0 0 32 32" fill="none" xmlns="http://www.w3.org/2000/svg">
    <path d="M30 16.5C29.9995 16.2037 29.8464 15.9279 29.5935 15.7685L26.858 14.0523L28.5697 11.3347C28.7282 11.0824 28.7451 10.7677 28.6145 10.5002C28.4837 10.2329 28.2235 10.05 27.9248 10.0157L24.7073 9.64584L25.0555 6.46528V6.46504C25.0874 6.17018 24.9644 5.87943 24.7296 5.69465C24.4947 5.50961 24.1803 5.45615 23.8961 5.55242L20.833 6.59372L19.7457 3.57738C19.645 3.29776 19.4064 3.08829 19.1133 3.02249C18.8203 2.9567 18.5133 3.0433 18.2999 3.25228L16 5.50499L13.7001 3.25129C13.4867 3.0423 13.1797 2.95571 12.8867 3.02174C12.5936 3.08754 12.355 3.29677 12.2543 3.57639L11.1686 6.59298L8.10386 5.55168C7.8199 5.4525 7.50408 5.50644 7.27035 5.69391C7.03514 5.87847 6.91215 6.16922 6.94449 6.46429L7.29264 9.64486L4.07519 10.0149C3.77653 10.0493 3.51633 10.2322 3.38575 10.4994C3.25492 10.7667 3.27182 11.0817 3.43034 11.334L5.14197 14.0516L2.40647 15.7685C2.15337 15.9277 2 16.2037 2 16.5C2 16.7963 2.15337 17.0721 2.40647 17.2314L5.14197 18.9474L3.43034 21.665C3.27183 21.9173 3.25492 22.2322 3.38575 22.4995C3.51634 22.7668 3.77654 22.9497 4.07519 22.984L7.29264 23.3541L6.94449 26.5347C6.91264 26.8298 7.03563 27.1203 7.27035 27.3053C7.50531 27.4901 7.81965 27.5438 8.10386 27.4473L11.167 26.406L12.2543 29.4226C12.355 29.7022 12.5936 29.9114 12.8867 29.9772C13.1797 30.0433 13.4867 29.9567 13.7001 29.7477L16 27.4947L18.2999 29.7484C18.4648 29.9095 18.6872 30 18.919 30C18.9849 30 19.0504 29.9927 19.1145 29.978C19.4073 29.9124 19.6457 29.703 19.7456 29.4233L20.8313 26.4068L23.8961 27.4481V27.4483C24.1803 27.5446 24.4946 27.4909 24.7296 27.3061C24.9643 27.121 25.0873 26.8305 25.0555 26.5357L24.7073 23.3549L27.9248 22.9848V22.985C28.2234 22.9507 28.4836 22.7678 28.6142 22.5005C28.745 22.233 28.7281 21.9183 28.5696 21.666L26.858 18.9484L29.5935 17.2314C29.8463 17.0718 29.9995 16.7963 30 16.5ZM25.1807 17.946C24.7745 18.2012 24.6522 18.7317 24.9063 19.1354L26.3469 21.4202L23.6389 21.7318V21.732C23.1601 21.7872 22.8156 22.2129 22.8671 22.686L23.1603 25.3647L20.5809 24.4886C20.1257 24.3328 19.6283 24.5691 19.4678 25.0178L18.5554 27.5553L16.6191 25.6579C16.2761 25.3226 15.7239 25.3226 15.3809 25.6579L13.4446 27.555L12.5305 25.0169C12.3707 24.5677 11.8726 24.3309 11.4174 24.4876L8.83965 25.3637L9.13292 22.6851V22.6853C9.18438 22.2122 8.83989 21.7864 8.36113 21.7311L5.65304 21.4195L7.09371 19.1344V19.1347C7.34778 18.731 7.22552 18.2005 6.8193 17.9451L4.51596 16.4998L6.8193 15.0538V15.054C7.22552 14.7988 7.34778 14.2683 7.09371 13.8646L5.65304 11.5795L8.36113 11.268C8.83987 11.2126 9.18436 10.7871 9.13292 10.3138L8.83965 7.63509L11.4191 8.51143C11.6376 8.58787 11.8782 8.5748 12.0872 8.47563C12.2962 8.37621 12.4562 8.19866 12.5321 7.98217L13.4446 5.44475L15.3809 7.34214C15.7239 7.6774 16.2761 7.6774 16.6191 7.34214L18.5554 5.44475L19.4695 7.98286V7.9831C19.629 8.43252 20.1273 8.66933 20.5826 8.51211L23.1603 7.63602L22.8671 10.3147C22.8156 10.7878 23.1601 11.2136 23.6388 11.2687L26.3469 11.5802L24.9063 13.8653C24.6522 14.269 24.7745 14.7995 25.1807 15.0547L27.484 16.4997L25.1807 17.946Z" stroke="none" fill="#232A3A"/>
</svg>
