<svg viewBox="0 0 24 33" xmlns="http://www.w3.org/2000/svg" stroke="none" fill="#232A3A">
    <path d="M23.9966 18.0144C23.9966 18.0141 23.9966 18.0137 23.9966 18.0137C23.9966 18.0133 23.9966 18.0133 23.9966 18.013C24.0886 14.2266 22.2926 10.751 19.5255 9.36297C17.336 8.26458 15.0368 8.82309 13.3762 10.8577C13.3714 10.8638 13.3681 10.8709 13.3632 10.877C13.3578 10.8842 13.3515 10.8892 13.3463 10.8964C13.192 11.1137 13.0165 11.2866 12.8293 11.4169C12.8534 10.2988 13.1495 9.32538 13.7112 8.56961C14.3838 7.66419 15.3733 7.16583 16.4967 7.16583C16.853 7.16583 17.1422 6.82249 17.1422 6.39932C17.1422 5.97615 16.853 5.63281 16.4967 5.63281C15.2349 5.63281 14.0944 6.1215 13.2143 7.01368C13.1226 5.11333 12.5082 3.41526 11.4297 2.13428C10.092 0.545766 8.21341 -0.196401 6.13943 0.0445436C6.00737 0.0581482 5.88467 0.119727 5.78638 0.217107C5.78276 0.220687 5.77975 0.225341 5.77613 0.228922C5.74869 0.257205 5.72246 0.287278 5.69925 0.320932C5.6902 0.334178 5.68327 0.349573 5.67483 0.363535C5.65915 0.389313 5.64287 0.414732 5.6299 0.443015C5.5898 0.530729 5.56418 0.628467 5.55543 0.731217C5.55543 0.731933 5.55513 0.732292 5.55513 0.73265C5.35072 3.19759 5.97572 5.43089 7.31465 7.02083C8.48716 8.41316 10.0748 9.15532 11.8458 9.15532C11.8693 9.15532 11.8931 9.15353 11.9167 9.15318C11.664 9.89534 11.5392 10.7191 11.5398 11.5884C11.2229 11.4652 10.9187 11.2257 10.6431 10.8713L10.6428 10.8709C10.6428 10.8709 10.6428 10.8709 10.6428 10.8706C9.09437 8.88144 6.83799 8.37485 4.60693 9.51549C2.16453 10.7639 -0.190141 14.077 0.0121618 18.003C0.0121618 18.0058 0.0115588 18.008 0.0115588 18.0108C0.0118603 18.0219 0.0124632 18.0327 0.0127647 18.0438C0.0127647 18.0449 0.0127647 18.0459 0.0127647 18.0474C0.0127647 18.0477 0.0127647 18.0477 0.0127647 18.0481C0.122207 24.1855 2.10634 28.0843 6.85729 31.4969C7.18712 31.7339 7.86669 32.2219 8.8378 32.2219C9.3826 32.2219 10.0197 32.068 10.7375 31.6301C11.4466 31.1973 11.8232 31.1432 11.9661 31.1493C12.4545 31.1998 12.7153 31.3118 13.2842 31.6383C14.0015 32.0497 14.6241 32.1965 15.1589 32.1965C16.0535 32.1965 16.6999 31.7851 17.1217 31.5166C20.6012 29.303 23.842 26.1356 23.9963 18.0209C23.9963 18.0201 23.9966 18.0194 23.9966 18.0187C23.9966 18.0173 23.9966 18.0159 23.9966 18.0144ZM8.22758 5.93748C7.2845 4.81761 6.79337 3.27313 6.81206 1.53854C8.2728 1.51742 9.57345 2.09884 10.5168 3.21907C11.4602 4.33894 11.9513 5.88378 11.9323 7.61836C10.4728 7.64092 9.17065 7.05735 8.22758 5.93748ZM16.5078 30.168C15.944 30.5274 15.1713 31.0175 13.8462 30.2578C13.1754 29.873 12.7581 29.6893 12.0584 29.6191C12.0523 29.6184 12.0466 29.6199 12.0406 29.6195C12.0351 29.6191 12.03 29.6173 12.0246 29.617C11.5178 29.5948 10.8855 29.8164 10.1481 30.2661C8.79167 31.0942 7.96799 30.5027 7.5257 30.1852C3.86797 27.5577 1.40989 24.477 1.30256 17.9811C1.30256 17.975 1.30105 17.9693 1.30075 17.9632C1.30045 17.9568 1.30165 17.9511 1.30135 17.9446C1.12045 14.7439 3.13263 11.9385 5.11736 10.9239C6.84854 10.0389 8.51671 10.3987 9.69435 11.9106C9.69435 11.9106 9.69435 11.9106 9.69465 11.911L9.69495 11.9113C10.3516 12.7562 11.1777 13.2184 12.0276 13.2184C12.0478 13.2184 12.0683 13.2181 12.0885 13.2177C12.1301 13.2167 12.1711 13.2095 12.2124 13.2063C12.2166 13.2063 12.2206 13.2077 12.2245 13.2077C12.251 13.2077 12.2782 13.2059 12.3053 13.2016C12.3128 13.2005 12.3198 13.197 12.3273 13.1955C13.0741 13.101 13.7657 12.6589 14.3006 11.9267C14.3015 11.9256 14.3024 11.9253 14.303 11.9242C15.5976 10.3382 17.3185 9.91969 19.0229 10.7746C21.2687 11.9009 22.7834 14.861 22.7062 17.9732C22.7062 17.9743 22.7065 17.9754 22.7065 17.9765C22.7065 17.9772 22.7062 17.9779 22.7062 17.9783C22.5757 24.9055 20.1357 27.8598 16.5078 30.168Z"/>
</svg>