<svg width="32" height="32" viewBox="0 0 32 32" fill="none" xmlns="http://www.w3.org/2000/svg">
    <path d="M27.7395 19.8411L24.7224 16.9388V12.8356C24.7224 12.3729 24.3322 12.01 23.8642 12.01H22.7587V0.826144C22.7587 0.363421 22.3685 0.000562624 21.9005 0.000562624C21.4322 0.000562624 21.0423 0.375958 21.0423 0.826144V12.0221H19.612L16.8551 9.3701L16.8548 0.825581C16.8548 0.362858 16.4645 0 15.9965 0C15.5282 0 15.1383 0.375396 15.1383 0.825581V9.3701L12.3814 12.0221H10.9638L11.1068 0.838207C11.1068 0.387732 10.7297 8.03748e-05 10.2486 8.03748e-05C9.78031 8.03748e-05 9.39037 0.362906 9.39037 0.813035L9.24733 12.0218H8.12885C7.64783 12.0218 7.27062 12.3972 7.27062 12.8474V16.9506L4.2535 19.853C3.9155 20.1781 3.9155 20.7036 4.2535 21.0288L7.27062 23.9311V28.0343C7.27062 28.497 7.66086 28.8599 8.12885 28.8599H12.3944L15.4115 31.7622C15.5806 31.9249 15.7887 32 16.0228 32C16.257 32 16.465 31.9124 16.6341 31.7622L19.6513 28.8599H23.9168C24.3978 28.8599 24.775 28.4845 24.775 28.0343V23.9311L27.7921 21.0288C28.0775 20.6911 28.0775 20.1659 27.7392 19.8404L27.7395 19.8411ZM19.7028 25.7208L15.9836 23.8319L12.2644 25.7208L12.9796 21.7303L9.97554 18.9031L14.1369 18.3151L15.9967 14.6874L17.8564 18.3151L22.0178 18.9031L19.0137 21.7303L19.7028 25.7208Z" stroke="none" fill="#232A3A"/>
</svg>