<svg width="32" height="32" viewBox="0 0 32 32" fill="none" xmlns="http://www.w3.org/2000/svg">
    <path d="M9.00165 16.5781C9.01717 17.0886 9.2043 17.575 9.52747 17.945L18.7054 28.3596C19.0572 28.7584 19.54 28.9886 20.0476 28.9996C20.5552 29.0106 21.0461 28.8014 21.4121 28.4182C21.7782 28.0349 21.9895 27.509 21.9996 26.956C22.0097 26.403 21.8177 25.8683 21.4659 25.4695L13.5667 16.5L21.4659 7.53047C21.8177 7.13169 22.0097 6.59699 21.9996 6.04401C21.9895 5.49103 21.7782 4.96506 21.4121 4.58181C21.0461 4.19856 20.5552 3.98943 20.0476 4.00041C19.54 4.0114 19.0572 4.2416 18.7054 4.64038L9.52747 15.055C9.35048 15.2574 9.21273 15.4966 9.12239 15.7583C9.03206 16.02 8.99099 16.2988 9.00165 16.5781Z" stroke="none" fill="#232A3A"/>
    <path d="M9.00165 16.5781C9.01717 17.0886 9.2043 17.575 9.52747 17.945L18.7054 28.3596C19.0572 28.7584 19.54 28.9886 20.0476 28.9996C20.5552 29.0106 21.0461 28.8014 21.4121 28.4182C21.7782 28.0349 21.9895 27.509 21.9996 26.956C22.0097 26.403 21.8177 25.8683 21.4659 25.4695L13.5667 16.5L21.4659 7.53047C21.8177 7.13169 22.0097 6.59699 21.9996 6.04401C21.9895 5.49103 21.7782 4.96506 21.4121 4.58181C21.0461 4.19856 20.5552 3.98943 20.0476 4.00041C19.54 4.0114 19.0572 4.2416 18.7054 4.64038L9.52747 15.055C9.35048 15.2574 9.21273 15.4966 9.12239 15.7583C9.03206 16.02 8.99099 16.2988 9.00165 16.5781Z" fill="none" stroke="#232A3A"/>
</svg>