<svg viewBox="0 0 32 32" fill="none" xmlns="http://www.w3.org/2000/svg">
    <path d="M15.9974 2.66406C13.3603 2.66406 10.7825 3.44605 8.5898 4.91113C6.39714 6.37622 4.68818 8.4586 3.67901 10.8949C2.66984 13.3313 2.4058 16.0122 2.92026 18.5986C3.43473 21.185 4.70461 23.5608 6.56931 25.4255C8.43401 27.2902 10.8098 28.5601 13.3962 29.0745C15.9826 29.589 18.6635 29.325 21.0998 28.3158C23.5362 27.3066 25.6186 25.5977 27.0837 23.405C28.5487 21.2123 29.3307 18.6345 29.3307 15.9974C29.3307 14.2464 28.9859 12.5126 28.3158 10.8949C27.6457 9.27727 26.6636 7.80742 25.4255 6.56931C24.1874 5.33119 22.7175 4.34906 21.0998 3.679C19.4822 3.00894 17.7484 2.66406 15.9974 2.66406V2.66406ZM21.7307 12.8107L15.6374 20.8107C15.5132 20.9721 15.3537 21.1028 15.1711 21.193C14.9885 21.2831 14.7877 21.3302 14.5841 21.3307C14.3815 21.3318 14.1814 21.2868 13.9989 21.199C13.8164 21.1112 13.6563 20.983 13.5307 20.8241L10.2774 16.6774C10.1697 16.5391 10.0903 16.3809 10.0438 16.2119C9.99723 16.0429 9.98442 15.8664 10.0061 15.6924C10.0278 15.5184 10.0835 15.3505 10.1701 15.198C10.2566 15.0456 10.3724 14.9117 10.5107 14.8041C10.7901 14.5866 11.1444 14.489 11.4957 14.5327C11.6697 14.5544 11.8377 14.6101 11.9901 14.6967C12.1425 14.7833 12.2764 14.8991 12.3841 15.0374L14.5574 17.8107L19.5974 11.1441C19.7042 11.004 19.8376 10.8863 19.9898 10.7978C20.1421 10.7092 20.3104 10.6516 20.4849 10.628C20.6595 10.6045 20.837 10.6156 21.0073 10.6607C21.1776 10.7057 21.3373 10.7839 21.4774 10.8907C21.6175 10.9975 21.7351 11.1309 21.8237 11.2832C21.9122 11.4355 21.9699 11.6037 21.9934 11.7783C22.017 11.9528 22.0059 12.1303 21.9608 12.3006C21.9157 12.4709 21.8375 12.6307 21.7307 12.7707V12.8107Z" stroke="none" fill="#232A3A"/>
</svg>