<svg viewBox="0 0 32 32" fill="none" xmlns="http://www.w3.org/2000/svg">
    <path d="M21.4167 9.53906H10.5838C10.5838 9.53906 3 16.0007 3 23.5414C3 27.8483 6.26129 30.0031 8.41642 30.0031H23.5836C25.7478 30.0031 29 27.8481 29 23.5414C29 16.0007 21.4162 9.53906 21.4162 9.53906H21.4167ZM17.0823 24.5085V26.2331H14.9181L14.9179 24.5142C13.3229 24.2194 12.3209 23.2408 12.2498 21.8199H14.1265C14.2183 22.5657 14.9744 23.0463 16.0684 23.0463C17.0764 23.0463 17.7908 22.5599 17.7908 21.8672C17.7908 21.2777 17.3284 20.9415 16.19 20.6882L14.9833 20.4318C13.2933 20.0809 12.4632 19.2054 12.4632 17.7993C12.4632 16.3932 13.406 15.3791 14.9062 15.0459V13.3094H17.0704V15.0486C18.5349 15.3729 19.5104 16.3663 19.5578 17.7016L17.7464 17.7018C17.6546 16.9737 16.9725 16.4874 16.0357 16.4874C15.0989 16.4874 14.4229 16.9355 14.4229 17.6371C14.4229 18.2061 14.8646 18.5215 15.9526 18.7631L17.0704 18.999C18.9351 19.388 19.7385 20.178 19.7385 21.6197C19.7387 23.1612 18.7426 24.1931 17.0823 24.5085L17.0823 24.5085Z" stroke="none" fill="#232A3A"/>
    <path d="M21.4057 3.0715H18.4114C17.7929 2.38943 16.9127 2 15.9892 2C15.0656 2 14.1855 2.38946 13.5669 3.0715H10.5726C10.2144 3.07294 9.88022 3.25019 9.6792 3.54485C9.47818 3.83952 9.43641 4.21397 9.56752 4.54544L10.5726 7.37835H21.4054L22.4104 4.54544C22.5416 4.21397 22.4998 3.83953 22.2988 3.54485C22.0978 3.25017 21.7636 3.07294 21.4054 3.0715H21.4057Z" stroke="none" fill="#232A3A"/>
</svg>
