<svg viewBox="0 0 32 32" fill="none" xmlns="http://www.w3.org/2000/svg">
    <path d="M29.376 11.6718L17.7598 7.32076C17.1807 7.09169 16.5656 7 15.9504 7C15.3352 7 14.7562 7.09169 14.1771 7.32076L2.5971 11.6718C1.80097 11.9926 1.80097 13.4123 2.5971 13.7328L7.01198 15.3816V20.4655C7.01198 21.5189 7.5547 22.3892 8.31474 22.7099L11.2098 23.7632C14.3944 24.954 17.7598 24.954 20.9443 23.7632L23.8394 22.7099C24.5994 22.3891 25.1421 21.5191 25.1421 20.4655L25.1419 15.3359L27.7835 14.3283V19.4579H27.6388C27.4218 19.4579 27.2769 19.687 27.2769 19.9161V22.2978C27.2769 22.5726 27.4579 22.7559 27.6388 22.7559H27.7113L27.1322 24.3131C27.0237 24.6339 27.1683 25 27.4579 25H29.2672C29.5207 25 29.7014 24.6335 29.5929 24.3131L28.9777 22.8017H29.0502C29.2672 22.8017 29.4121 22.5726 29.4121 22.3435V19.9618C29.4121 19.687 29.2312 19.5036 29.0502 19.5036H28.9055V13.9162L29.376 13.7332C30.208 13.4581 30.2082 11.9926 29.376 11.6718Z" stroke="none" fill="#232A3A"/>
</svg>
