<svg viewBox="0 0 32 32" fill="none" xmlns="http://www.w3.org/2000/svg">
    <path d="M10.6381 24.2684C10.3505 24.7396 9.80424 25.0045 9.43027 25.0928C8.79758 25.2105 8.19375 25.2695 7.73357 25.6523C7.58973 25.77 7.35964 25.6817 7.33096 25.5051C7.2447 24.9456 7.38853 24.3274 7.64731 23.9446C7.53236 23.9446 7.4459 23.9739 7.33096 24.0329C7.12955 24.1212 6.92835 23.9446 6.95703 23.7384C7.12955 23.0906 7.56107 22.2368 8.22246 21.854L6.92817 20.5289C4.79998 21 3.47719 23.5909 3.017 25.3576C2.90206 25.8581 3.39093 26.2409 3.8509 26.0347C4.08099 25.9171 4.31108 25.8581 4.56986 25.8581C3.99474 26.7415 3.62083 28.184 3.8509 29.5091C3.93716 29.9507 4.45493 30.1569 4.79993 29.8624C5.89281 28.9497 7.30188 28.8614 8.76867 28.5668C9.86155 28.3313 11.6158 27.3596 12.0471 25.7108C11.9322 25.6225 11.8171 25.5046 11.7021 25.3869L10.6381 24.2684Z" stroke="none" fill="#232A3A"/>
    <path d="M24.7004 17.2305C29.0142 12.2252 30.107 5.04094 29.992 2.86213C29.992 2.62656 29.877 2.42056 29.7332 2.27331C29.5894 2.12606 29.3882 2.03774 29.1581 2.00837C27.0299 1.89069 20.0129 2.98 15.1239 7.42596L13.571 6.83714C11.8454 6.18939 9.91864 6.71946 8.73969 8.1327L6.03633 11.4009C5.66241 11.8721 5.83493 12.5786 6.38138 12.7848L9.83236 14.0803C8.88332 15.6702 8.22193 17.0541 7.81931 17.908C7.56052 18.5264 7.67547 19.2329 8.13566 19.7335L12.6795 24.3855C13.1397 24.8567 13.8587 25.0039 14.4625 24.7094C15.3253 24.2972 16.677 23.62 18.2012 22.6484L19.4666 26.1816C19.668 26.741 20.3581 26.947 20.8183 26.5348L23.9816 23.7671C25.362 22.5599 25.8797 20.5872 25.247 18.8207L24.7004 17.2305ZM22.831 13.2851C21.7381 14.404 20.0127 14.404 18.9198 13.2851C17.8269 12.1662 17.8269 10.3997 18.9198 9.28084C20.0127 8.16194 21.7381 8.16194 22.831 9.28084C23.9239 10.3997 23.9239 12.1958 22.831 13.2851Z" stroke="none" fill="#232A3A"/>
</svg>
