<svg viewBox="0 0 32 32" fill="none" xmlns="http://www.w3.org/2000/svg">
    <path fill-rule="evenodd" clip-rule="evenodd" d="M6.30589 24.1666H8.50961V11.3337H6.30589V24.1666ZM10.7131 24.1666H12.9169V11.3337H10.7131V24.1666ZM15.1206 24.1666H17.3241V11.3337H15.1206V24.1666ZM19.5278 24.1666H21.7316V11.3337H19.5278V24.1666ZM23.9351 24.1666H26.1388V11.3337H23.9351V24.1666ZM28.3426 24.1666V11.3337C28.8459 11.3337 29.2857 10.9719 29.4102 10.4552C29.5347 9.93835 29.312 9.39811 28.8703 9.14266L16.75 2.14268C16.4227 1.95244 16.0217 1.95244 15.6945 2.14268L3.57418 9.14266C3.13241 9.39813 2.90978 9.93835 3.03426 10.4552C3.15876 10.972 3.5985 11.3337 4.10188 11.3337V24.1666C3.49263 24.1666 3.00011 24.6893 3.00011 25.3334V28.8334C3.00011 29.4774 3.49263 30 4.10188 30H28.3425C28.9517 30 29.4442 29.4774 29.4442 28.8334V25.3334C29.4442 24.6893 28.9518 24.1666 28.3426 24.1666Z" stroke="none" fill="#232A3A"/>
</svg>
