<svg viewBox="0 0 32 32" fill="none" xmlns="http://www.w3.org/2000/svg">
    <path d="M29.6278 12.5546L19.4471 2.37263C19.2087 2.134 18.8851 2 18.5478 2C18.2105 2 17.8871 2.134 17.6485 2.37263L16.5286 3.49264C15.7825 4.23883 15.2868 5.19818 15.1095 6.23843C14.9324 7.27869 15.0825 8.34809 15.5396 9.29931L9.83855 13.2954C8.86066 12.6704 7.69843 12.3978 6.54443 12.5229C5.39068 12.6476 4.31383 13.1628 3.49247 13.9826L2.37259 15.1026C2.13398 15.341 2 15.6647 2 16.002C2 16.3394 2.13398 16.663 2.37259 16.9014L7.83623 22.3657L3.6499 26.5549C3.40064 26.7912 3.25766 27.1182 3.25317 27.4614C3.24843 27.8047 3.38288 28.1352 3.62552 28.3781C3.86839 28.6208 4.19884 28.7552 4.54208 28.7505C4.88533 28.746 5.21225 28.603 5.44847 28.3537L9.63952 24.1631L15.1032 29.6274C15.3415 29.866 15.6651 30 16.0025 30C16.3398 30 16.6634 29.866 16.9018 29.6274L18.0216 28.5074C18.8416 27.6858 19.3565 26.6092 19.4815 25.455C19.6065 24.3009 19.334 23.1387 18.7088 22.1607L22.7044 16.459C23.6555 16.9152 24.7248 17.0651 25.7649 16.888C26.8048 16.7107 27.7642 16.2151 28.5106 15.4697L29.6305 14.3496C29.8674 14.111 30.0005 13.7881 30 13.4517C29.9995 13.115 29.8657 12.7925 29.6278 12.5546ZM26.7093 13.6746C26.2494 14.1343 25.6311 14.4004 24.9811 14.4184C24.331 14.4366 23.6988 14.2051 23.214 13.7718C22.9349 13.524 22.5614 13.411 22.1919 13.4627C21.8221 13.5143 21.4938 13.7254 21.2933 14.0403L16.0789 21.4786C15.9073 21.7234 15.8278 22.0209 15.8538 22.319C15.8798 22.6168 16.01 22.8962 16.2214 23.1076C16.6979 23.5854 16.9656 24.2326 16.9656 24.9073C16.9656 25.5823 16.6979 26.2295 16.2214 26.7073L16.0025 26.9282L5.07517 15.9996L5.29366 15.7806C5.77159 15.3042 6.41875 15.0369 7.0934 15.0369C7.76806 15.0369 8.41502 15.3042 8.8929 15.7806C9.10453 15.9918 9.38386 16.1217 9.68142 16.1478C9.97922 16.1738 10.2768 16.0943 10.5218 15.9231L17.907 10.7472C18.2441 10.5585 18.4773 10.2266 18.5405 9.84565C18.6037 9.46448 18.4903 9.07528 18.2322 8.78764C17.7988 8.30302 17.5673 7.67066 17.5853 7.02059C17.6033 6.37046 17.8693 5.75209 18.3288 5.2919L18.5478 5.07102L26.9299 13.4541L26.7093 13.6746Z" stroke="none" fill="#232A3A"/>
    <path d="M16.2853 6.33847L19.0821 3.96946L28.1289 14.0734L25.8743 15.5005L22.5924 14.9868L20.3093 16.5281L16.2853 21.894L18.0547 25.6045L16.2853 28.8013L3.64255 16.5281L4.75556 14.0734H6.61059L9.80695 14.9868L16.2853 10.8767V6.33847Z" stroke="none" fill="#232A3A"/>
    <path d="M29.6278 12.5546L19.4471 2.37263C19.2087 2.134 18.8851 2 18.5478 2C18.2105 2 17.8871 2.134 17.6485 2.37263L16.5286 3.49264C15.7825 4.23883 15.2868 5.19818 15.1095 6.23843C14.9324 7.27869 15.0825 8.34809 15.5396 9.29931L9.83855 13.2954C8.86066 12.6704 7.69843 12.3978 6.54443 12.5229C5.39068 12.6476 4.31383 13.1628 3.49247 13.9826L2.37259 15.1026C2.13398 15.341 2 15.6647 2 16.002C2 16.3394 2.13398 16.663 2.37259 16.9014L7.83623 22.3657L3.6499 26.5549C3.40064 26.7912 3.25766 27.1182 3.25317 27.4614C3.24843 27.8047 3.38288 28.1352 3.62552 28.3781C3.86839 28.6208 4.19884 28.7552 4.54208 28.7505C4.88533 28.746 5.21225 28.603 5.44847 28.3537L9.63952 24.1631L15.1032 29.6274C15.3415 29.866 15.6651 30 16.0025 30C16.3398 30 16.6634 29.866 16.9018 29.6274L18.0216 28.5074C18.8416 27.6858 19.3565 26.6092 19.4815 25.455C19.6065 24.3009 19.334 23.1387 18.7088 22.1607L22.7044 16.459C23.6555 16.9152 24.7248 17.0651 25.7649 16.888C26.8048 16.7107 27.7642 16.2151 28.5106 15.4697L29.6305 14.3496C29.8674 14.111 30.0005 13.7881 30 13.4517C29.9995 13.115 29.8657 12.7925 29.6278 12.5546ZM26.7093 13.6746C26.2494 14.1343 25.6311 14.4004 24.9811 14.4184C24.331 14.4366 23.6988 14.2051 23.214 13.7718C22.9349 13.524 22.5614 13.411 22.1919 13.4627C21.8221 13.5143 21.4938 13.7254 21.2933 14.0403L16.0789 21.4786C15.9073 21.7234 15.8278 22.0209 15.8538 22.319C15.8798 22.6168 16.01 22.8962 16.2214 23.1076C16.6979 23.5854 16.9656 24.2326 16.9656 24.9073C16.9656 25.5823 16.6979 26.2295 16.2214 26.7073L16.0025 26.9282L5.07517 15.9996L5.29366 15.7806C5.77159 15.3042 6.41875 15.0369 7.0934 15.0369C7.76806 15.0369 8.41502 15.3042 8.8929 15.7806C9.10453 15.9918 9.38386 16.1217 9.68142 16.1478C9.97922 16.1738 10.2768 16.0943 10.5218 15.9231L17.907 10.7472C18.2441 10.5585 18.4773 10.2266 18.5405 9.84565C18.6037 9.46448 18.4903 9.07528 18.2322 8.78764C17.7988 8.30302 17.5673 7.67066 17.5853 7.02059C17.6033 6.37046 17.8693 5.75209 18.3288 5.2919L18.5478 5.07102L26.9299 13.4541L26.7093 13.6746Z" fill="none" stroke="#232A3A"/>
    <path d="M16.2853 6.33847L19.0821 3.96946L28.1289 14.0734L25.8743 15.5005L22.5924 14.9868L20.3093 16.5281L16.2853 21.894L18.0547 25.6045L16.2853 28.8013L3.64255 16.5281L4.75556 14.0734H6.61059L9.80695 14.9868L16.2853 10.8767V6.33847Z" fill="none" stroke="#232A3A"/>
</svg>
