<svg viewBox="0 0 32 32" fill="none" xmlns="http://www.w3.org/2000/svg">
    <path d="M14.3745 4.0506C12.9112 4.00052 11.4476 4.21336 10.0587 4.68938C7.62813 5.51591 4.27977 7.50735 2.18352 12.3792C1.73698 13.3185 2.13394 14.4332 3.06391 14.8842C3.99389 15.3352 5.09775 14.9343 5.54429 13.9951C5.56909 13.9575 5.58148 13.9075 5.59388 13.8699C5.96604 12.9932 6.4371 12.1539 7.00762 11.39C6.99523 11.5652 6.98283 11.7408 6.98283 11.9286C6.97043 14.2332 7.97507 16.4125 9.71116 17.9029L12.3651 15.2226C10.5668 13.8949 10.1701 11.3398 11.4847 9.52369C12.7993 7.70753 15.3293 7.30691 17.1276 8.63455C18.9258 9.9622 19.3225 12.5173 18.0079 14.3334C17.5862 14.9221 17.0157 15.3856 16.346 15.6736C15.416 16.112 15.0191 17.239 15.4656 18.1786C15.8874 19.0677 16.9166 19.4812 17.822 19.1178C18.7892 18.6919 19.6575 18.0782 20.3768 17.3142L24.9035 13.1185H29.9882V4L14.3745 4.0506Z" stroke="none" fill="#232A3A"/>
    <path d="M20.3363 26.5855L24.1189 22.7653L19.9146 18.5193C19.3441 18.9703 18.724 19.3458 18.0543 19.6341C17.7568 19.7718 17.4218 19.8344 17.0995 19.8344C15.7602 19.8344 14.6811 18.7446 14.6811 17.392C14.6811 16.4151 15.2516 15.5383 16.1444 15.1501L16.442 14.9999L14.8671 13.4219L5.61536 22.7655L9.39792 26.5856H2.03125V28.0009H29.9965V26.5856L20.3363 26.5855Z" stroke="none" fill="#232A3A"/>
</svg>
