<svg viewBox="0 0 32 32" fill="none" xmlns="http://www.w3.org/2000/svg">
    <path d="M17.605 2.00505C17.1548 1.95331 16.7578 2.30594 16.7578 2.75949V15.4429C16.7578 15.5432 16.7975 15.6397 16.8687 15.7105L25.8321 24.6738C26.1513 24.9931 26.6801 24.9657 26.9611 24.6122C28.8625 22.2211 30.001 19.198 30.001 15.9126C30.001 8.73518 24.5718 2.8032 17.6046 2.00481L17.605 2.00505Z" stroke="none" fill="#232A3A"/>
    <path d="M14.7406 29.858C18.5082 30.1895 22.0034 29.0166 24.6964 26.8755C25.051 26.5936 25.0809 26.0642 24.7608 25.7441L15.7975 16.7807C15.44 16.4235 15.2432 15.9484 15.2432 15.4429V2.75944C15.2432 2.30736 14.8485 1.95348 14.3998 2.00499C7.04402 2.8456 1.40123 9.40943 2.05097 17.1198C2.61665 23.8383 8.02457 29.267 14.7404 29.8579L14.7406 29.858Z" stroke="none" fill="#232A3A"/>
</svg>
