<svg viewBox="0 0 32 32" fill="none" xmlns="http://www.w3.org/2000/svg">
    <path fill-rule="evenodd" clip-rule="evenodd" d="M4.36084 8.29014H8.65192V5.58888C8.65192 4.12557 9.72465 3 11.012 3H20.9885C22.2759 3 23.456 4.12551 23.456 5.58888V8.29014H27.6399C28.9273 8.29014 30 9.41565 30 10.7663V26.5238C30 27.8745 28.9273 29 27.6399 29H4.36007C3.07274 29 2 27.8745 2 26.5238V10.7663C2 9.41565 3.07274 8.29014 4.36007 8.29014H4.36084ZM10.3686 8.29014H21.6331V5.58888C21.6331 5.25109 21.3111 4.91355 20.9894 4.91355H11.0129C10.6909 4.91355 10.3692 5.25134 10.3692 5.58888V8.29014H10.3686Z" stroke="none" fill="#232A3A"/>
</svg>
