<svg viewBox="0 0 32 32" fill="none" xmlns="http://www.w3.org/2000/svg">
    <path d="M19.4595 22.3799C19.4595 22.7422 19.1587 23.037 18.7869 23.037H17.1564V24.63C17.1564 24.9928 16.8551 25.2873 16.4843 25.2873H15.5177C15.1463 25.2873 14.8456 24.9927 14.8456 24.63V23.037H13.2151C12.8435 23.037 12.5425 22.7424 12.5425 22.3799V21.4355C12.5425 21.0732 12.8433 20.7784 13.2151 20.7784H14.8456V19.1854C14.8456 18.8227 15.1464 18.529 15.5177 18.529H16.4843C16.8551 18.529 17.1564 18.8226 17.1564 19.1854V20.7784H18.7869C19.1585 20.7784 19.4595 21.073 19.4595 21.4355V22.3799Z" stroke="none" fill="#232A3A"/>
    <path d="M23.2976 6.52956C23.2976 7.64393 22.3737 8.54726 21.2324 8.54726L10.769 8.54702C9.62788 8.54702 8.70352 7.64369 8.70352 6.52931V4.01795C8.70352 2.90283 9.62813 2 10.769 2H21.2324C22.3738 2 23.2976 2.90283 23.2976 4.01795V6.52956Z" stroke="none" fill="#232A3A"/>
    <path d="M23.6088 13.07L21.2125 10.7975V9.23904H10.7879V10.7975L8.39161 13.07C7.07573 14.3189 6 16.8942 6 18.7957V27.9813C6 29.0964 6.92487 30 8.0655 30H23.9342C25.0754 30 25.9998 29.0964 25.9998 27.9813L26 18.7957C26 16.8938 24.9243 14.3188 23.6089 13.07H23.6088ZM23.2971 25.5876C23.2971 26.6357 22.4282 27.4861 21.3547 27.4861L10.6457 27.4863C9.57294 27.4863 8.70273 26.6362 8.70273 25.5879V18.1846C8.70273 17.137 9.57243 16.2861 10.6457 16.2861H21.3547C22.4276 16.2861 23.2971 17.1368 23.2971 18.1846L23.2973 25.5879L23.2971 25.5876Z" stroke="none"  fill="#232A3A"/>
</svg>
