<svg viewBox="0 0 32 32" fill="none" xmlns="http://www.w3.org/2000/svg">
    <path d="M25.6052 2.00369C25.2525 2.04244 24.9583 2.37783 24.966 2.73247V6.01758L23.8894 7.09393V5.24395C23.8982 4.83689 23.498 4.47059 23.0933 4.51517C22.7406 4.55392 22.4464 4.88932 22.4541 5.24395V8.52906L22.2971 8.68603C20.1416 6.77011 17.3063 5.60273 14.2007 5.60273C7.47093 5.60273 2 11.0727 2 17.8014C2 24.53 7.47093 30 14.2007 30C20.9304 30 26.4013 24.53 26.4013 17.8014C26.4013 15.2034 25.583 12.7948 24.1922 10.8163L23.1718 11.8254C23.1735 11.828 23.17 11.8339 23.1718 11.8366C24.3053 13.5432 24.966 15.5955 24.966 17.8014C24.966 23.7544 20.1547 28.5649 14.2007 28.5649C8.24666 28.5649 3.43537 23.7544 3.43537 17.8014C3.43537 11.8483 8.24666 7.03787 14.2007 7.03787C16.9172 7.03787 19.3955 8.04073 21.2878 9.69511L19.5048 11.4778C18.07 10.2725 16.2168 9.54935 14.2007 9.54935C9.65095 9.54935 5.94728 13.2524 5.94728 17.8014C5.94728 22.3503 9.65095 26.0534 14.2007 26.0534C18.7504 26.0534 22.4541 22.3503 22.4541 17.8014C22.4541 16.2964 22.0404 14.8907 21.3327 13.6754L20.2898 14.7181C20.7573 15.6431 21.0187 16.6901 21.0187 17.8014C21.0187 21.5747 17.9747 24.6182 14.2007 24.6182C10.4267 24.6182 7.38265 21.5747 7.38265 17.8014C7.38265 14.028 10.4267 10.9845 14.2007 10.9845C15.8282 10.9845 17.3136 11.5513 18.4844 12.4981L16.4322 14.5499C15.7955 14.1097 15.029 13.8548 14.2007 13.8548C12.0292 13.8548 10.2534 15.6302 10.2534 17.8014C10.2534 19.9725 12.0292 21.748 14.2007 21.748C16.3722 21.748 18.1479 19.9725 18.1479 17.8014C18.1479 17.5127 18.1072 17.2304 18.047 16.9605L16.6453 18.362C16.3919 19.4824 15.4023 20.3129 14.2007 20.3129C12.8049 20.3129 11.6888 19.1969 11.6888 17.8014C11.6888 16.4058 12.8049 15.2899 14.2007 15.2899C14.6332 15.2899 15.0355 15.4033 15.3893 15.5926L13.696 17.2856C13.4172 17.5381 13.3931 18.0214 13.6456 18.3003C13.8981 18.5792 14.3815 18.6032 14.6604 18.3508C14.6642 18.3471 23.4633 9.54935 23.4633 9.54935H26.7602C27.1394 9.55471 27.4881 9.21092 27.4881 8.83178C27.4881 8.45265 27.1394 8.10886 26.7602 8.11422H24.8987L25.9752 7.03787H29.2721C29.6513 7.04323 30 6.69944 30 6.3203C30 5.94116 29.6513 5.59737 29.2721 5.60273H26.4013V2.73247C26.4101 2.32541 26.0099 1.95911 25.6052 2.00369Z" stroke="none" fill="#232A3A"/>
</svg>
