<svg viewBox="0 0 32 32" fill="none" xmlns="http://www.w3.org/2000/svg">
    <path d="M6.74961 4.54555H15.7498V2.63644C15.7498 2.28509 16.0858 2 16.4999 2C16.914 2 17.25 2.28509 17.25 2.63644V4.54555H26.2502C26.449 4.54555 26.6399 4.61246 26.7805 4.73178C26.9211 4.8511 27.0003 5.01303 27 5.182V23C27.0003 23.169 26.9211 23.3309 26.7805 23.4502C26.6399 23.5695 26.449 23.6364 26.2502 23.6364H21.3571L23.9459 29.1276C24.0996 29.4536 23.9128 29.8237 23.5283 29.9541C23.1441 30.0845 22.7079 29.926 22.5542 29.5997L19.743 23.6362H17.2501V29.3636C17.2501 29.7149 16.9141 30 16.5 30C16.0859 30 15.7499 29.7149 15.7499 29.3636V23.6362H13.257L10.4458 29.5997C10.2921 29.926 9.85589 30.0845 9.4717 29.9541C9.08723 29.8237 8.9004 29.4536 9.05409 29.1276L11.6429 23.6364H6.74985C6.55096 23.6364 6.36011 23.5695 6.21948 23.4502C6.07886 23.3309 5.99975 23.169 6 23V5.182C5.99975 5.01303 6.07886 4.8511 6.21948 4.73178C6.36011 4.61246 6.55096 4.54555 6.74985 4.54555H6.74961Z" stroke="none" fill="#232A3A"/>
</svg>
