<svg viewBox="0 0 20 20" fill="none" xmlns="http://www.w3.org/2000/svg">
    <g clip-path="url(#clip0_4756_34200)">
        <path d="M18.6271 11.9531L14.149 7.54688C14.0334 7.42813 13.9052 7.325 13.7771 7.22188C14.2396 8.28125 14.3115 9.47187 13.974 10.5938L16.9021 13.475C17.1225 13.6915 17.2976 13.9497 17.4171 14.2346C17.5366 14.5196 17.5982 14.8254 17.5982 15.1344C17.5982 15.4433 17.5366 15.7492 17.4171 16.0341C17.2976 16.319 17.1225 16.5773 16.9021 16.7937C16.4525 17.2348 15.8476 17.4817 15.2177 17.4813C14.6084 17.4813 13.999 17.2531 13.5334 16.7937L9.2365 12.5625C8.88442 12.2197 8.65211 11.7726 8.574 11.2875V11.2812C8.57087 11.2781 8.57087 11.275 8.57087 11.2688C8.44587 10.5344 8.69275 9.775 9.23337 9.24375C9.682 8.80076 10.2873 8.55259 10.9177 8.55312C10.9677 8.55312 11.0115 8.55625 11.0552 8.55937C10.9614 8.21955 10.7817 7.90959 10.5334 7.65938L9.30525 6.45312C8.61987 6.68242 7.99745 7.06849 7.4875 7.58061C6.97755 8.09273 6.59413 8.71678 6.36775 9.40313C5.95212 10.675 6.1115 12.0563 6.80837 13.1937C7.00212 13.5156 7.2365 13.8125 7.51462 14.0844L11.9865 18.4875C13.8177 20.2906 16.7959 20.2906 18.624 18.4875C20.4552 16.6875 20.4552 13.7531 18.6271 11.9531Z" fill="#232A3A"/>
        <path d="M6.025 9.40625L3.09687 6.52188C2.64375 6.08125 2.4 5.49062 2.4 4.8625C2.4 4.23438 2.64375 3.65 3.09687 3.20312C3.54631 2.76173 4.15131 2.5148 4.78125 2.51562C5.41563 2.51562 6.01562 2.75938 6.46563 3.20312L10.7656 7.4375C11.1203 7.78219 11.3528 8.2331 11.4281 8.72188L11.4313 8.725V8.73125C11.5531 9.46562 11.3063 10.2219 10.7656 10.7562C10.3161 11.1956 9.71292 11.4422 9.08438 11.4437C9.0375 11.4437 8.99062 11.4344 8.94687 11.4313C9.0375 11.775 9.2125 12.0844 9.46875 12.3406L10.6938 13.5469C11.3656 13.3219 11.9844 12.9469 12.4844 12.45C13.0156 11.9281 13.4125 11.2906 13.6375 10.6C14.05 9.33125 13.8906 7.95625 13.2031 6.81875V6.81562C13.1993 6.81206 13.1961 6.80783 13.1938 6.80313C13.0031 6.48438 12.7656 6.1875 12.4906 5.91563L8.01562 1.50937C7.12812 0.634375 5.95 0.15625 4.69375 0.15625C3.4375 0.15625 2.25937 0.6375 1.37187 1.50937C0.490625 2.38437 0 3.54375 0 4.77812C0.003125 6.0125 0.490625 7.175 1.37812 8.04688L5.85 12.4469C5.96875 12.5656 6.09375 12.6719 6.225 12.775C5.75938 11.7188 5.6875 10.525 6.025 9.40625Z" fill="#232A3A"/>
    </g>
    <defs>
        <clipPath id="clip0_4756_34200">
            <rect width="20" height="20" fill="white"/>
        </clipPath>
    </defs>
</svg>