<svg width="32" height="32" viewBox="0 0 32 32" fill="none" xmlns="http://www.w3.org/2000/svg">
    <path d="M16.0001 2C11.8223 2 8.43754 5.44636 8.43754 9.7001V14.6H6.37489C5.61311 14.6 5 15.2246 5 15.9999V28.6001C5 29.3757 5.61337 30 6.37489 30H25.6251C26.3869 30 27 29.3755 27 28.6001V15.9999C27 15.2243 26.3866 14.6 25.6251 14.6H23.5625V9.7001C23.5625 5.44636 20.1777 2 15.9999 2H16.0001ZM16.0001 3.39989C19.4398 3.39989 22.1877 6.19756 22.1877 9.69998V14.5999H9.81255V9.69998C9.81255 6.19774 12.5603 3.39989 16.0001 3.39989ZM16.0001 18.8001C17.1394 18.8001 18.0628 19.7403 18.0628 20.9003C18.0628 21.5218 17.7969 22.0797 17.3753 22.4642V24.4003C17.3753 25.1759 16.762 25.8002 16.0004 25.8002C15.2386 25.8002 14.6255 25.1757 14.6255 24.4003V22.4642C14.204 22.0797 13.9381 21.5218 13.9381 20.9003C13.9381 19.7403 14.8615 18.8001 16.0007 18.8001H16.0001Z" stroke="none" fill="#232A3A"/>
</svg>