<svg width="32" height="32" viewBox="0 0 32 32" fill="none" xmlns="http://www.w3.org/2000/svg">
    <path d="M19.834 23.794C20.6105 23.0295 20.1915 21.2735 18.923 19.245C19.384 19.173 19.815 19.063 20.141 18.8945C21.314 18.289 22.106 17.1855 22.7055 16.044C23.35 14.8195 23.7825 13.4735 24.6235 12.3585C24.7655 12.17 24.9075 12.001 25.049 11.842C26.8635 12.0595 28.312 12.4495 28.312 12.4495L28.8655 11.043C28.1669 10.7923 27.4506 10.5939 26.7225 10.4495C27.1685 10.196 27.4595 10.117 27.4595 10.117L26.935 8.699C26.094 9.0545 25.4115 9.579 24.84 10.207C22.704 10.0875 20.553 10.513 18.856 11.829C17.58 12.819 16.718 14.1915 15.907 15.5645C15.1884 14.8593 14.4232 14.2034 13.6165 13.601C13.7695 13.3495 13.9335 13.1235 14.11 12.949C15.1765 11.899 16.5835 11.2275 17.5065 10.026C19.4465 7.503 18.0275 3.548 16.4315 1.5C16.1455 1.7755 15.6725 2.177 15.3165 2.494C17.013 4.2315 18.1995 7.2735 16.87 9.5465C16.127 10.817 14.754 11.614 13.794 12.7055C13.628 12.895 13.4795 13.135 13.345 13.4C10.8345 11.5995 8.5305 10.875 7.6175 11.774C7.52684 11.8667 7.45217 11.9739 7.3965 12.091L7.393 12.0875L7.3685 12.159C7.3345 12.2365 7.3035 12.317 7.2825 12.405L1 30.5L19.331 24.091L19.326 24.086C19.523 24.0225 19.6965 23.929 19.834 23.794ZM4.6465 28.166L3.1165 27.453L4.149 24.478L8.8845 26.684L4.6465 28.166M13.122 25.2025L5.1825 21.503L6.215 18.5285L12.148 21.5065C8.6065 19.2015 7.2475 15.553 7.2475 15.553L7.6005 14.5365C8.228 16.124 9.6085 18.101 11.5055 19.967C13.4185 21.85 15.446 23.214 17.0665 23.8235L13.122 25.2025M16.1715 15.8325C17.0005 14.644 17.855 13.4445 19.043 12.591C20.174 11.778 22.01 11.6295 23.7505 11.727C23.1625 12.754 22.728 13.8935 22.338 14.988C21.8665 16.313 21.2345 17.687 20.0295 18.4995C19.7045 18.7185 19.249 18.8785 18.7625 18.997C18.094 17.9725 17.217 16.8895 16.1715 15.8325" stroke="none" fill="#232A3A"/>
    <path d="M11.5159 11.0027C12.0169 11.0027 10.5149 9.50273 10.7659 8.18723C11.7279 8.11323 13.9269 8.54673 12.6469 6.78873C14.0949 7.04373 14.8449 5.96273 13.4779 4.93823C13.9329 4.97023 14.6399 4.11223 14.1324 4.00373C12.5064 3.65923 11.8699 4.53873 12.9019 5.80723C11.8169 5.60523 10.9324 6.10973 11.7474 7.24273C8.61438 6.85223 10.3969 11.0027 11.5159 11.0027ZM22.2719 9.66973C22.7414 9.45773 21.9449 8.05723 21.6859 7.69923C23.6674 7.48723 23.5924 6.89673 22.3499 5.63173C25.7279 5.74523 22.4544 3.82523 22.9134 3.06523C23.3109 2.40623 24.5304 3.09723 24.4174 2.73023C24.0364 1.50273 20.4224 2.33273 22.7094 4.62473C20.7134 4.66373 20.5219 5.31623 22.0094 6.66873C19.4184 6.69723 21.5324 10.0027 22.2719 9.66973M30.8479 14.6152C30.0569 14.8367 29.9349 14.7537 30.0404 15.5412C28.2134 14.7002 26.2804 13.5307 27.4534 16.6292C25.3784 15.3937 25.4819 16.4757 25.0939 18.2562C24.5889 17.8627 23.8714 16.8257 23.8714 16.8257L23.1114 17.4712C23.1114 17.4712 24.5039 19.4352 25.1914 19.3237C25.7959 19.2262 26.1249 18.0837 26.1584 17.0767C28.0834 17.8892 29.0049 17.9977 28.1244 15.6217C29.6634 16.4862 31.5504 17.2487 30.8479 14.6152M3.02387 5.72123L4.43787 7.13573L3.02387 8.54973L1.60938 7.13573L3.02387 5.72123ZM14.9034 16.8832L13.4884 18.2972L12.0739 16.8822L13.4889 15.4677L14.9034 16.8832ZM8.60937 3.50273L10.0234 4.91673L8.60887 6.33173L7.19487 4.91673L8.60937 3.50273ZM24.0049 23.2447L22.5899 21.8302L24.0039 20.4152L25.4189 21.8297L24.0049 23.2447ZM20.8519 28.0957L19.4379 26.6817L20.8519 25.2672L22.2664 26.6817L20.8519 28.0957ZM27.0559 29.2127L25.6409 27.7982L27.0544 26.3832L28.4694 27.7977L27.0559 29.2127ZM28.4699 22.7707L27.0559 21.3562L28.4699 19.9422L29.8839 21.3562L28.4699 22.7707ZM26.1094 5.00273L27.5234 6.41673L26.1089 7.83123L24.6949 6.41673L26.1094 5.00273Z" stroke="none" fill="#232A3A"/>
</svg>