<svg width="32" height="32" viewBox="0 0 32 32" fill="none" xmlns="http://www.w3.org/2000/svg">
    <path d="M20.1989 3H3.39991C2.55992 3 2 3.53995 2 4.35V28.65C2 29.46 2.55992 30 3.39991 30H20.1989C21.0389 30 21.5988 29.46 21.5988 28.65V4.35C21.5988 3.53995 21.0389 3 20.1989 3ZM4.79983 7.05H10.3995V15.15H4.79983V7.05ZM15.9991 25.95C15.9991 26.76 15.4392 27.3 14.5992 27.3H6.19974C5.35974 27.3 4.79983 26.76 4.79983 25.95C4.79983 25.1399 5.35974 24.6 6.19974 24.6H14.5992C15.4392 24.6 15.9991 25.1399 15.9991 25.95ZM18.799 20.55C18.799 21.36 18.2391 21.9 17.3991 21.9H6.19974C5.35974 21.9 4.79983 21.36 4.79983 20.55C4.79983 19.7399 5.35974 19.2 6.19974 19.2H17.3991C18.2391 19.2 18.799 19.7399 18.799 20.55Z" stroke="none" fill="#232A3A"/>
    <path d="M24.3984 24.6C24.3984 25.5451 24.9584 26.4899 25.7984 26.8951V27.3C25.7984 28.1101 26.3583 30 27.1983 30C28.0383 30 28.5982 28.1101 28.5982 27.3V26.8951C29.4382 26.4902 29.9981 25.5451 29.9981 24.6V9.75H24.3984V24.6Z" stroke="none" fill="#232A3A"/>
    <path d="M29.2981 4.35938H25.0984C24.6785 4.35938 24.3984 4.62945 24.3984 5.03437V7.05937H29.9981V5.03437C29.9981 4.62945 29.718 4.35938 29.2981 4.35938Z" stroke="none" fill="#232A3A"/>
</svg>