<svg viewBox="0 0 32 32" fill="none" xmlns="http://www.w3.org/2000/svg">
    <path d="M8.47647 14.934C7.88484 14.934 7.40475 15.4131 7.40475 16.0058C7.40475 16.5983 7.88379 17.0775 8.47647 17.0775H23.5064C24.098 17.0775 24.5781 16.5984 24.5781 16.0058C24.5781 15.4133 24.0991 14.934 23.5064 14.934H8.47647Z" stroke="none" fill="#232A3A"/>
    <path d="M17.0707 8.48323C17.0707 7.8916 16.5917 7.41151 15.999 7.41151C15.4065 7.41151 14.9273 7.89055 14.9273 8.48323V23.5134C14.9273 24.105 15.4063 24.5851 15.999 24.5851C16.5915 24.5851 17.0707 24.106 17.0707 23.5134V8.48323Z" stroke="none" fill="#232A3A"/>
    <path d="M16 1C7.72798 1 1 7.72905 1 16C1 24.2709 7.72905 31 16 31C24.272 31 31 24.2709 31 16C31 7.72905 24.271 1 16 1ZM16 3.14322C23.1143 3.14322 28.8581 8.88756 28.8581 16.0013C28.8581 23.115 23.1148 28.8593 16 28.8593C8.88574 28.8593 3.14194 23.1161 3.14194 16.0013C3.14194 8.88703 8.88521 3.14322 16 3.14322Z" stroke="none" fill="#232A3A"/>
</svg>