<svg viewBox="0 0 32 32" fill="none" xmlns="http://www.w3.org/2000/svg">
    <path d="M8.47647 14.934C7.88484 14.934 7.40475 15.4131 7.40475 16.0058C7.40475 16.5983 7.88379 17.0775 8.47647 17.0775H23.5064C24.098 17.0775 24.5781 16.5984 24.5781 16.0058C24.5781 15.4133 24.0991 14.934 23.5064 14.934H8.47647Z" stroke="none" fill="#232A3A"/>
    <path d="M17.0707 8.48323C17.0707 7.8916 16.5917 7.41151 15.999 7.41151C15.4065 7.41151 14.9273 7.89055 14.9273 8.48323V23.5134C14.9273 24.105 15.4063 24.5851 15.999 24.5851C16.5915 24.5851 17.0707 24.106 17.0707 23.5134V8.48323Z" stroke="none" fill="#232A3A"/>
    <circle r="13" transform="matrix(0 -1 -1 0 16 16)" fill="none" stroke="#232A3A" stroke-width="2"/>
</svg>