<svg viewBox="0 0 32 32" fill="none" xmlns="http://www.w3.org/2000/svg">
    <path fill-rule="evenodd" clip-rule="evenodd" d="M16.0171 11.7659V9.31281C12.231 9.30656 8.85018 12.1268 8.13614 16.1618C7.42972 20.1487 9.53867 24.0827 13.1508 25.5172C14.1842 25.9278 14.7032 27.135 14.3117 28.2176C13.9636 29.179 13.0112 29.7157 12.0797 29.5352C11.9628 29.5133 11.8456 29.4792 11.7317 29.4341C6.30964 27.2843 3.14299 21.3811 4.20368 15.4016C5.27455 9.35214 10.3432 5.13816 16.0174 5.14566V3.11267C16.0174 2.13727 17.2009 1.63493 17.9179 2.30837L22.5286 6.63435C22.9951 7.07302 22.9951 7.8072 22.5286 8.24585L17.9179 12.572C17.2009 13.2439 16.0171 12.7428 16.0171 11.7659ZM18.6618 25.5841C18.3648 25.6962 18.0587 25.7893 17.7497 25.861C16.6713 26.1114 15.9888 27.23 16.2274 28.3593C16.4058 29.2054 17.0508 29.8167 17.8158 29.9661C18.0723 30.0144 18.3422 30.0128 18.6123 29.9505C19.0833 29.8401 19.5468 29.7001 19.9997 29.5321C21.0393 29.1448 21.5853 27.9454 21.2161 26.8565C20.8457 25.7661 19.6997 25.1968 18.6618 25.5841ZM22.6383 22.3626C22.5528 22.4964 22.4643 22.6271 22.3697 22.7546C21.6962 23.6708 21.8582 24.9852 22.7341 25.6915C22.9952 25.8999 23.2861 26.0321 23.5892 26.0897C24.3031 26.228 25.0651 25.9528 25.5407 25.3071C25.6831 25.1112 25.8226 24.9091 25.9562 24.702C26.5726 23.7423 26.3311 22.4419 25.4162 21.7948C24.4996 21.1522 23.2562 21.4029 22.6383 22.3626ZM26.0522 15.9381C24.9482 15.9068 24.0273 16.8605 23.9986 18.0178C23.9717 19.0583 24.6766 19.9263 25.6247 20.1099C25.7266 20.1303 25.8332 20.1426 25.9396 20.1441C27.0421 20.1785 27.9631 19.2498 27.9978 18.0939C27.9978 18.0908 27.9993 18.0488 27.9993 18.0457C28.0292 16.8884 27.1487 15.9582 26.0522 15.9381Z" stroke="none" fill="#232A3A"/>
</svg>