<svg viewBox="0 0 34 34" fill="none" xmlns="http://www.w3.org/2000/svg">
    <path d="M32.4958 19.1725C31.6649 19.1725 30.9906 19.8485 30.9906 20.6776V30.9906H3.01022V3.01022H13.3215C14.1537 3.01022 14.8266 2.33595 14.8266 1.50511C14.8266 0.674272 14.1537 0 13.3215 0H1.50511C0.67293 0 0 0.674272 0 1.50511V32.4949C0 33.3271 0.67293 34 1.50511 34H32.4949C33.3271 34 34 33.3271 34 32.4949V20.6768C34.0003 19.8493 33.3279 19.1725 32.4958 19.1725Z" fill="#232A3A"/>
    <path d="M32.4895 0.000343836H21.3336C20.5015 0.000343836 19.8285 0.674616 19.8285 1.50545C19.8285 2.33629 20.5015 3.01056 21.3336 3.01056H28.8562L16.9899 14.8769C16.4013 15.4655 16.4013 16.4165 16.9899 17.0052C17.2835 17.2988 17.6685 17.4463 18.0539 17.4463C18.4392 17.4463 18.8246 17.2988 19.1179 17.0052L30.9841 5.13888V12.6644C30.9841 13.4953 31.6584 14.1695 32.4893 14.1695C33.3214 14.1695 33.9944 13.4953 33.9944 12.6644L33.9947 1.50511C33.9947 0.67293 33.3217 0.000343836 32.4895 0.000343836Z" fill="#232A3A"/>
</svg>