<svg viewBox="0 0 37 37" fill="none" xmlns="http://www.w3.org/2000/svg">
    <path fill-rule="evenodd" clip-rule="evenodd" d="M19.0217 0.282917L29.1124 13.0775C29.2029 13.1922 29.2186 13.3386 29.1546 13.4698C29.0914 13.6016 28.9665 13.6797 28.8199 13.6797L23.487 13.6794V27.7654C23.487 28.3565 23.0049 28.8381 22.4146 28.8381L14.4613 28.8383C13.8705 28.8383 13.3889 28.3562 13.3889 27.7657V13.679H8.05364C7.9078 13.679 7.78294 13.6009 7.71972 13.4692C7.65649 13.3377 7.67137 13.1916 7.76195 13.0768L17.8526 0.282917C17.9985 0.097758 18.2017 0 18.4373 0C18.6724 0 18.8754 0.097758 19.0212 0.282917H19.0217ZM0.9295 36.5469C0.415473 36.5469 0 36.1303 0 35.6174C0 35.1036 0.415738 34.6879 0.9295 34.6879H35.9449C36.4581 34.6879 36.8744 35.1041 36.8744 35.6174C36.8744 36.1306 36.4578 36.5469 35.9449 36.5469H0.9295Z" fill="#232A3A"/>
</svg>