<svg width="32" height="32" viewBox="0 0 32 32" fill="none" xmlns="http://www.w3.org/2000/svg">
    <path d="M20.9331 11.0752C20.8328 10.9747 20.7136 10.8949 20.5823 10.8405L19.4033 11.075L19.4032 11.0751C19.4031 11.0752 19.4031 11.0753 19.403 11.0754L15.5002 14.9702L11.5968 11.0669C11.4964 10.9664 11.3771 10.8867 11.2459 10.8324C11.1146 10.778 10.9739 10.75 10.8319 10.75C10.6898 10.75 10.5491 10.778 10.4178 10.8324C10.2866 10.8867 10.1673 10.9664 10.0669 11.0669C9.96641 11.1673 9.88672 11.2866 9.83235 11.4178C9.77798 11.5491 9.75 11.6898 9.75 11.8319C9.75 11.9739 9.77798 12.1146 9.83235 12.2459C9.88672 12.3771 9.96641 12.4964 10.0669 12.5968L13.97 16.5L10.0669 20.4032C9.96641 20.5036 9.88672 20.6229 9.83235 20.7541C9.77798 20.8854 9.75 21.0261 9.75 21.1681C9.75 21.3102 9.77798 21.4509 9.83235 21.5822C9.88672 21.7134 9.96641 21.8327 10.0669 21.9331C10.1673 22.0336 10.2866 22.1133 10.4178 22.1676C10.5491 22.222 10.6898 22.25 10.8319 22.25C10.9739 22.25 11.1146 22.222 11.2459 22.1676C11.3771 22.1133 11.4964 22.0336 11.5968 21.9331L15.5 18.03L19.4032 21.9331C19.5036 22.0336 19.6229 22.1133 19.7541 22.1676C19.8854 22.222 20.0261 22.25 20.1681 22.25C20.3102 22.25 20.4509 22.222 20.5822 22.1676C20.7134 22.1133 20.8327 22.0336 20.9331 21.9331C21.0336 21.8327 21.1133 21.7134 21.1676 21.5822C21.222 21.4509 21.25 21.3102 21.25 21.1681C21.25 21.0261 21.222 20.8854 21.1676 20.7541C21.1133 20.6229 21.0336 20.5036 20.9331 20.4032L17.03 16.5L20.9331 12.5968C21.3478 12.1822 21.3478 11.4899 20.9331 11.0752Z" fill="#232A3A" stroke="#232A3A" stroke-width="0.5"/>
    <path d="M16 30C23.732 30 30 23.732 30 16C30 8.26801 23.732 2 16 2C8.26801 2 2 8.26801 2 16C2 23.732 8.26801 30 16 30Z" fill="none" stroke="#232A3A" stroke-width="2"/>
</svg>